<svg width="16" height="16" viewBox="0 0 16 16" fill="none" xmlns="http://www.w3.org/2000/svg">
    <path d="M8 0.125C5.91922 0.150104 3.93073 0.987849 2.45929 2.45929C0.987849 3.93073 0.150104 5.91922 0.125 8C0.150104 10.0808 0.987849 12.0693 2.45929 13.5407C3.93073 15.0122 5.91922 15.8499 8 15.875C10.0808 15.8499 12.0693 15.0122 13.5407 13.5407C15.0122 12.0693 15.8499 10.0808 15.875 8C15.8499 5.91922 15.0122 3.93073 13.5407 2.45929C12.0693 0.987849 10.0808 0.150104 8 0.125ZM12.5 8.5625H8.5625V12.5H7.4375V8.5625H3.5V7.4375H7.4375V3.5H8.5625V7.4375H12.5V8.5625Z" fill="black"/>
</svg>
