<svg width="18" height="18" viewBox="0 0 18 18" fill="none" xmlns="http://www.w3.org/2000/svg">
    <path d="M9 1C7.41775 1 5.87103 1.46919 4.55544 2.34824C3.23985 3.22729 2.21447 4.47672 1.60897 5.93853C1.00347 7.40034 0.84504 9.00887 1.15372 10.5607C1.4624 12.1126 2.22433 13.538 3.34315 14.6569C4.46197 15.7757 5.88743 16.5376 7.43928 16.8463C8.99113 17.155 10.5997 16.9965 12.0615 16.391C13.5233 15.7855 14.7727 14.7602 15.6518 13.4446C16.5308 12.129 17 10.5823 17 9C17 6.87827 16.1571 4.84344 14.6569 3.34315C13.1566 1.84285 11.1217 1 9 1ZM9 16C7.61553 16 6.26216 15.5895 5.11101 14.8203C3.95987 14.0511 3.06266 12.9579 2.53285 11.6788C2.00303 10.3997 1.86441 8.99224 2.13451 7.63437C2.4046 6.2765 3.07129 5.02922 4.05026 4.05025C5.02922 3.07128 6.2765 2.4046 7.63437 2.1345C8.99224 1.86441 10.3997 2.00303 11.6788 2.53284C12.9579 3.06266 14.0511 3.95986 14.8203 5.11101C15.5895 6.26215 16 7.61553 16 9C16 10.8565 15.2625 12.637 13.9498 13.9497C12.637 15.2625 10.8565 16 9 16Z" fill="black"/>
    <path d="M4 5.5V6.06C4.00094 6.12594 4.0279 6.18884 4.075 6.235L7.715 9.915C7.7621 9.96116 7.78906 10.0241 7.79 10.09V13.535C7.78991 13.5819 7.80298 13.6278 7.82774 13.6676C7.85249 13.7074 7.88792 13.7394 7.93 13.76L9.905 14.465C9.94315 14.4837 9.98544 14.4924 10.0279 14.4902C10.0703 14.488 10.1115 14.475 10.1475 14.4525C10.1835 14.43 10.2132 14.3987 10.2338 14.3615C10.2543 14.3243 10.2651 14.2825 10.265 14.24V10.045C10.2719 9.97742 10.3041 9.91493 10.355 9.87L13.915 6.245C13.9621 6.19884 13.9891 6.13594 13.99 6.07V5.5H4Z" fill="black"/>
</svg>
