<svg width="22" height="22" viewBox="0 0 22 22" fill="none" xmlns="http://www.w3.org/2000/svg">
<path d="M9.42857 6.2862C9.42857 6.70297 9.59413 7.10267 9.88883 7.39737C10.1835 7.69207 10.5832 7.85763 11 7.85763C11.4168 7.85763 11.8165 7.69207 12.1112 7.39737C12.4059 7.10267 12.5714 6.70297 12.5714 6.2862C12.5714 5.86943 12.4059 5.46973 12.1112 5.17504C11.8165 4.88033 11.4168 4.71477 11 4.71477C10.5832 4.71477 10.1835 4.88033 9.88883 5.17503C9.59413 5.46973 9.42857 5.86943 9.42857 6.2862ZM9.42857 11.0005C9.42857 11.4173 9.59413 11.817 9.88883 12.1117C10.1835 12.4064 10.5832 12.5719 11 12.5719C11.4168 12.5719 11.8165 12.4064 12.1112 12.1117C12.4059 11.817 12.5714 11.4173 12.5714 11.0005C12.5714 10.5837 12.4059 10.184 12.1112 9.88932C11.8165 9.59462 11.4168 9.42906 11 9.42906C10.5832 9.42906 10.1835 9.59462 9.88883 9.88932C9.59413 10.184 9.42857 10.5837 9.42857 11.0005ZM11 17.2862C10.5832 17.2862 10.1835 17.1206 9.88883 16.8259C9.59413 16.5312 9.42857 16.1315 9.42857 15.7148C9.42857 15.298 9.59413 14.8983 9.88883 14.6036C10.1835 14.3089 10.5832 14.1433 11 14.1433C11.4168 14.1433 11.8165 14.3089 12.1112 14.6036C12.4059 14.8983 12.5714 15.298 12.5714 15.7148C12.5714 16.1315 12.4059 16.5312 12.1112 16.8259C11.8165 17.1206 11.4168 17.2862 11 17.2862ZM11 22.0005C4.92486 22.0005 1.16097e-06 17.0756 1.42652e-06 11.0005C1.69208e-06 4.92534 4.92486 0.000487535 11 0.0004878C17.0751 0.000488066 22 4.92535 22 11.0005C22 17.0756 17.0751 22.0005 11 22.0005ZM11 20.4291C16.2069 20.4291 20.4286 16.2074 20.4286 11.0005C20.4286 5.79356 16.2069 1.57192 11 1.57192C5.79307 1.57192 1.57143 5.79356 1.57143 11.0005C1.57143 16.2074 5.79307 20.4291 11 20.4291Z" fill="#C2C2C2"/>
</svg>
