<svg width="24" height="26" viewBox="0 0 24 26" fill="none" xmlns="http://www.w3.org/2000/svg">
<path d="M17.3333 14.3H13.3333C12.6 14.3 12 14.885 12 15.6V19.5C12 20.215 12.6 20.8 13.3333 20.8H17.3333C18.0667 20.8 18.6667 20.215 18.6667 19.5V15.6C18.6667 14.885 18.0667 14.3 17.3333 14.3ZM17.3333 1.3V2.6H6.66667V1.3C6.66667 0.585 6.06667 0 5.33333 0C4.6 0 4 0.585 4 1.3V2.6H2.66667C1.18667 2.6 0.0133333 3.77 0.0133333 5.2L0 23.4C0 24.83 1.18667 26 2.66667 26H21.3333C22.8 26 24 24.83 24 23.4V5.2C24 3.77 22.8 2.6 21.3333 2.6H20V1.3C20 0.585 19.4 0 18.6667 0C17.9333 0 17.3333 0.585 17.3333 1.3ZM20 23.4H4C3.26667 23.4 2.66667 22.815 2.66667 22.1V9.1H21.3333V22.1C21.3333 22.815 20.7333 23.4 20 23.4Z" fill="#CC9933"/>
</svg>
