<svg width="30" height="27" viewBox="0 0 30 27" fill="none" xmlns="http://www.w3.org/2000/svg">
<path d="M15.2014 5.92334C12.8681 5.92334 10.959 7.83242 10.959 10.1657C10.959 12.4991 12.8681 14.4081 15.2014 14.4081C17.5347 14.4081 19.4438 12.4991 19.4438 10.1657C19.4438 7.83242 17.5347 5.92334 15.2014 5.92334ZM16.8983 12.7112H13.5044C13.2711 12.7112 13.0802 12.5203 13.0802 12.2869C13.0802 12.0536 13.2711 11.8627 13.5044 11.8627H16.8983C17.1317 11.8627 17.3226 12.0536 17.3226 12.2869C17.3226 12.5203 17.1317 12.7112 16.8983 12.7112ZM14.179 10.713L13.3771 9.91119C13.2117 9.74574 13.2117 9.48271 13.3771 9.31726C13.5426 9.1518 13.8056 9.1518 13.9711 9.31726L14.4802 9.82634L16.4317 7.87484C16.5971 7.70939 16.8602 7.70939 17.0256 7.87484C17.1911 8.04029 17.1911 8.30332 17.0256 8.46878L14.7814 10.713C14.6159 10.8785 14.3444 10.8785 14.179 10.713Z" fill="#CC9933"/>
<path d="M25.4049 0H5.02044C3.86195 0 2.75091 0.461864 1.93173 1.28399C1.11255 2.10611 0.652344 3.22115 0.652344 4.38381V16.074C0.652344 17.2366 1.11255 18.3517 1.93173 19.1738C2.75091 19.9959 3.86195 20.4578 5.02044 20.4578H13.7566V23.3803H7.9325C7.54634 23.3803 7.17599 23.5343 6.90293 23.8083C6.62988 24.0823 6.47647 24.454 6.47647 24.8416C6.47647 25.2291 6.62988 25.6008 6.90293 25.8749C7.17599 26.1489 7.54634 26.3029 7.9325 26.3029H22.4928C22.879 26.3029 23.2493 26.1489 23.5224 25.8749C23.7955 25.6008 23.9489 25.2291 23.9489 24.8416C23.9489 24.454 23.7955 24.0823 23.5224 23.8083C23.2493 23.5343 22.879 23.3803 22.4928 23.3803H16.6687V20.4578H25.4049C26.5634 20.4578 27.6744 19.9959 28.4936 19.1738C29.3128 18.3517 29.773 17.2366 29.773 16.074V4.38381C29.773 3.22115 29.3128 2.10611 28.4936 1.28399C27.6744 0.461864 26.5634 0 25.4049 0ZM26.8609 16.074C26.8609 16.4615 26.7075 16.8332 26.4345 17.1072C26.1614 17.3813 25.7911 17.5352 25.4049 17.5352H5.02044C4.63428 17.5352 4.26393 17.3813 3.99087 17.1072C3.71781 16.8332 3.56441 16.4615 3.56441 16.074V4.38381C3.56441 3.99626 3.71781 3.62458 3.99087 3.35054C4.26393 3.07649 4.63428 2.92254 5.02044 2.92254H25.4049C25.7911 2.92254 26.1614 3.07649 26.4345 3.35054C26.7075 3.62458 26.8609 3.99626 26.8609 4.38381V16.074Z" fill="#CC9933"/>
</svg>
