<svg width="29" height="26" viewBox="0 0 29 26" fill="none" xmlns="http://www.w3.org/2000/svg">
<path d="M28.014 2.95972L19.314 0.0726091H19.2125C19.145 0.0658556 19.077 0.0658556 19.0095 0.0726091H18.676H18.4875H18.386L10.15 2.88754L1.914 0.0726091C1.69595 0.00102552 1.46393 -0.0179806 1.23705 0.0171547C1.01017 0.0522901 0.794918 0.140563 0.609005 0.274707C0.421604 0.407537 0.268639 0.582852 0.162745 0.786168C0.0568515 0.989484 0.00106858 1.21497 4.83362e-06 1.44399V21.6537C-0.000779851 21.9564 0.0939923 22.2516 0.270926 22.4977C0.447859 22.7438 0.698004 22.9283 0.986005 23.0251L9.686 25.9122C9.9781 26.007 10.2929 26.007 10.585 25.9122L18.85 23.1695L27.086 25.9844C27.24 26.0052 27.396 26.0052 27.55 25.9844C27.8532 25.9886 28.1491 25.8921 28.391 25.7101C28.5784 25.5773 28.7314 25.402 28.8373 25.1987C28.9431 24.9953 28.9989 24.7699 29 24.5408V4.33109C29.0008 4.02846 28.906 3.73324 28.7291 3.48715C28.5521 3.24106 28.302 3.05656 28.014 2.95972ZM8.7 22.5343L2.9 20.6144V3.45053L8.7 5.37045V22.5343ZM17.4 20.6144L11.6 22.5343V5.37045L17.4 3.45053V20.6144ZM26.1 22.5343L20.3 20.6144V3.45053L26.1 5.37045V22.5343Z" fill="#CC9933"/>
</svg>
