<svg width="26" height="26" viewBox="0 0 26 26" fill="none" xmlns="http://www.w3.org/2000/svg">
<path d="M13.7548 16.3665V24.6238C13.7548 25.3807 14.3738 26 15.1303 26H23.3831C24.1397 26 24.7586 25.3807 24.7586 24.6238V16.3665C24.7586 15.6096 24.1397 14.9903 23.3831 14.9903H15.1303C14.3738 14.9903 13.7548 15.6096 13.7548 16.3665ZM1.37548 26H9.62836C10.3849 26 11.0038 25.3807 11.0038 24.6238V16.3665C11.0038 15.6096 10.3849 14.9903 9.62836 14.9903H1.37548C0.618966 14.9903 0 15.6096 0 16.3665V24.6238C0 25.3807 0.618966 26 1.37548 26ZM0 2.60447V10.8617C0 11.6186 0.618966 12.2379 1.37548 12.2379H9.62836C10.3849 12.2379 11.0038 11.6186 11.0038 10.8617V2.60447C11.0038 1.84756 10.3849 1.22827 9.62836 1.22827H1.37548C0.618966 1.22827 0 1.84756 0 2.60447ZM17.8125 0.402541L11.9667 6.23766C11.4302 6.77438 11.4302 7.64139 11.9667 8.17811L17.8125 14.027C18.3489 14.5637 19.2154 14.5637 19.7519 14.027L25.5977 8.17811C26.1341 7.64139 26.1341 6.77438 25.5977 6.23766L19.7656 0.402541C19.2292 -0.13418 18.3489 -0.13418 17.8125 0.402541Z" fill="#CC9933"/>
</svg>
