<svg width="25" height="26" viewBox="0 0 25 26" fill="none" xmlns="http://www.w3.org/2000/svg">
<path d="M12.4362 0C10.8031 0 9.18592 0.320243 7.67708 0.942444C6.16825 1.56464 4.7973 2.47662 3.64249 3.6263C1.31024 5.94817 0 9.09732 0 12.3809V21.0476C0 21.376 0.131024 21.6909 0.364248 21.9231C0.597473 22.1553 0.913793 22.2857 1.24362 22.2857H4.97449C5.96398 22.2857 6.91294 21.8944 7.61261 21.1978C8.31228 20.5013 8.70535 19.5565 8.70535 18.5714V16.0952C8.70535 15.1101 8.31228 14.1654 7.61261 13.4688C6.91294 12.7723 5.96398 12.3809 4.97449 12.3809H2.48724C2.48724 9.75404 3.53544 7.23473 5.40123 5.37723C7.26703 3.51972 9.79759 2.47619 12.4362 2.47619C15.0749 2.47619 17.6054 3.51972 19.4712 5.37723C21.337 7.23473 22.3852 9.75404 22.3852 12.3809H19.898C18.9085 12.3809 17.9595 12.7723 17.2598 13.4688C16.5602 14.1654 16.1671 15.1101 16.1671 16.0952V18.5714C16.1671 19.5565 16.5602 20.5013 17.2598 21.1978C17.9595 21.8944 18.9085 22.2857 19.898 22.2857H23.6288C23.9587 22.2857 24.275 22.1553 24.5082 21.9231C24.7414 21.6909 24.8724 21.376 24.8724 21.0476V12.3809C24.8724 9.09732 23.5622 5.94817 21.23 3.6263C18.8977 1.30442 15.7345 0 12.4362 0ZM4.97449 14.8571C5.30432 14.8571 5.62064 14.9876 5.85386 15.2198C6.08709 15.452 6.21811 15.7669 6.21811 16.0952V18.5714C6.21811 18.8998 6.08709 19.2147 5.85386 19.4469C5.62064 19.6791 5.30432 19.8095 4.97449 19.8095H2.48724V14.8571H4.97449ZM22.3852 19.8095H19.898C19.5681 19.8095 19.2518 19.6791 19.0186 19.4469C18.7854 19.2147 18.6543 18.8998 18.6543 18.5714V16.0952C18.6543 15.7669 18.7854 15.452 19.0186 15.2198C19.2518 14.9876 19.5681 14.8571 19.898 14.8571H22.3852V19.8095Z" fill="#CC9933"/>
<path d="M22.4512 26L12.6349 26C11.9755 26 11.441 25.4655 11.441 24.8061C11.441 24.1468 11.9755 23.6122 12.6348 23.6122L22.4512 23.6122L22.4512 26Z" fill="#CC9933"/>
<path d="M22.4512 26L22.4512 16.7143L24.8389 16.7143L24.8389 23.6122C24.8389 24.931 23.7699 26 22.4512 26Z" fill="#CC9933"/>
</svg>
