<svg width="30" height="26" viewBox="0 0 30 26" fill="none" xmlns="http://www.w3.org/2000/svg">
<path d="M0.222656 13.4277V20.1415C0.222656 20.4976 0.364057 20.8392 0.615753 21.091C0.867448 21.3428 1.20882 21.4843 1.56477 21.4843H2.90689C2.90689 22.5526 3.33109 23.5772 4.08618 24.3327C4.84126 25.0881 5.86538 25.5126 6.93323 25.5126C8.00109 25.5126 9.0252 25.0881 9.78029 24.3327C10.5354 23.5772 10.9596 22.5526 10.9596 21.4843H19.0123C19.0123 22.5526 19.4365 23.5772 20.1916 24.3327C20.9466 25.0881 21.9708 25.5126 23.0386 25.5126C24.1065 25.5126 25.1306 25.0881 25.8857 24.3327C26.6408 23.5772 27.065 22.5526 27.065 21.4843H28.4071C28.763 21.4843 29.1044 21.3428 29.3561 21.091C29.6078 20.8392 29.7492 20.4976 29.7492 20.1415V4.0283C29.7492 2.95993 29.325 1.93531 28.5699 1.17986C27.8148 0.424409 26.7907 0 25.7229 0H13.6438C12.576 0 11.5518 0.424409 10.7968 1.17986C10.0417 1.93531 9.61747 2.95993 9.61747 4.0283V6.71383H6.93323C6.30816 6.71383 5.69168 6.85943 5.1326 7.13911C4.57352 7.41879 4.0872 7.82485 3.71216 8.32515L0.491079 12.622C0.451824 12.6804 0.420248 12.7436 0.397131 12.81L0.316604 12.9577C0.257371 13.1074 0.225549 13.2666 0.222656 13.4277ZM21.6965 21.4843C21.6965 21.2187 21.7752 20.9591 21.9227 20.7383C22.0702 20.5174 22.2798 20.3453 22.525 20.2437C22.7703 20.1421 23.0401 20.1155 23.3005 20.1673C23.5608 20.2191 23.7999 20.347 23.9876 20.5348C24.1753 20.7226 24.3032 20.9618 24.3549 21.2223C24.4067 21.4828 24.3802 21.7528 24.2786 21.9981C24.177 22.2435 24.005 22.4532 23.7843 22.6007C23.5636 22.7483 23.3041 22.827 23.0386 22.827C22.6827 22.827 22.3413 22.6856 22.0896 22.4337C21.8379 22.1819 21.6965 21.8404 21.6965 21.4843ZM12.3017 4.0283C12.3017 3.67217 12.4431 3.33064 12.6948 3.07882C12.9465 2.827 13.2879 2.68553 13.6438 2.68553H25.7229C26.0788 2.68553 26.4202 2.827 26.6719 3.07882C26.9236 3.33064 27.065 3.67217 27.065 4.0283V18.7987H26.0181C25.6407 18.3833 25.1808 18.0514 24.6677 17.8243C24.1546 17.5972 23.5997 17.4799 23.0386 17.4799C22.4776 17.4799 21.9227 17.5972 21.4096 17.8243C20.8965 18.0514 20.4365 18.3833 20.0591 18.7987H12.3017V4.0283ZM9.61747 12.0849H4.249L5.85954 9.93647C5.98456 9.7697 6.14666 9.63435 6.33302 9.54112C6.51938 9.4479 6.72488 9.39936 6.93323 9.39936H9.61747V12.0849ZM5.59112 21.4843C5.59112 21.2187 5.66983 20.9591 5.81731 20.7383C5.96478 20.5174 6.17439 20.3453 6.41963 20.2437C6.66487 20.1421 6.93472 20.1155 7.19507 20.1673C7.45541 20.2191 7.69455 20.347 7.88225 20.5348C8.06995 20.7226 8.19778 20.9618 8.24956 21.2223C8.30135 21.4828 8.27477 21.7528 8.17319 21.9981C8.07161 22.2435 7.89958 22.4532 7.67887 22.6007C7.45816 22.7483 7.19868 22.827 6.93323 22.827C6.57728 22.827 6.23591 22.6856 5.98422 22.4337C5.73252 22.1819 5.59112 21.8404 5.59112 21.4843ZM2.90689 14.7704H9.61747V18.5033C8.82539 17.7951 7.78566 17.4287 6.72479 17.4841C5.66393 17.5394 4.66791 18.0119 3.95374 18.7987H2.90689V14.7704Z" fill="#CC9933"/>
</svg>
