<svg width="37" height="28" viewBox="0 0 37 28" fill="none" xmlns="http://www.w3.org/2000/svg">
<path fill-rule="evenodd" clip-rule="evenodd" d="M28.4414 12.3031C30.8135 11.9698 32.6397 9.93615 32.6448 7.47226C32.6448 5.04408 30.8747 3.03079 28.5536 2.6499" fill="#CC9933"/>
<path d="M28.4414 12.3031C30.8135 11.9698 32.6397 9.93615 32.6448 7.47226C32.6448 5.04408 30.8747 3.03079 28.5536 2.6499" stroke="#CC9933" stroke-width="1.5" stroke-linecap="round" stroke-linejoin="round"/>
<path fill-rule="evenodd" clip-rule="evenodd" d="M31.5703 18.0068C33.8676 18.3503 35.471 19.1546 35.471 20.8125C35.471 21.9535 34.7161 22.6949 33.4952 23.1608" fill="#CC9933"/>
<path d="M31.5703 18.0068C33.8676 18.3503 35.471 19.1546 35.471 20.8125C35.471 21.9535 34.7161 22.6949 33.4952 23.1608" stroke="#CC9933" stroke-width="1.5" stroke-linecap="round" stroke-linejoin="round"/>
<path fill-rule="evenodd" clip-rule="evenodd" d="M18.2382 18.7075C12.7731 18.7075 8.10547 19.5356 8.10547 22.8429C8.10547 26.1485 12.7442 27.0004 18.2382 27.0004C23.7033 27.0004 28.3692 26.1808 28.3692 22.8718C28.3692 19.5628 23.7322 18.7075 18.2382 18.7075Z" fill="#CC9933" stroke="#CC9933" stroke-width="1.5" stroke-linecap="round" stroke-linejoin="round"/>
<path fill-rule="evenodd" clip-rule="evenodd" d="M18.2361 13.9877C21.8223 13.9877 24.7299 11.0817 24.7299 7.49386C24.7299 3.9077 21.8223 1 18.2361 1C14.6499 1 11.7422 3.9077 11.7422 7.49386C11.7286 11.0681 14.6142 13.9758 18.1885 13.9877H18.2361Z" fill="#CC9933" stroke="#CC9933" stroke-width="1.5" stroke-linecap="round" stroke-linejoin="round"/>
<path fill-rule="evenodd" clip-rule="evenodd" d="M8.03153 12.3031C5.65776 11.9698 3.83323 9.93615 3.82812 7.47226C3.82812 5.04408 5.59825 3.03079 7.91931 2.6499" fill="#CC9933"/>
<path d="M8.03153 12.3031C5.65776 11.9698 3.83323 9.93615 3.82812 7.47226C3.82812 5.04408 5.59825 3.03079 7.91931 2.6499" stroke="#CC9933" stroke-width="1.5" stroke-linecap="round" stroke-linejoin="round"/>
<path fill-rule="evenodd" clip-rule="evenodd" d="M4.90074 18.0068C2.60348 18.3503 1 19.1546 1 20.8125C1 21.9535 1.75498 22.6949 2.97587 23.1608" fill="#CC9933"/>
<path d="M4.90074 18.0068C2.60348 18.3503 1 19.1546 1 20.8125C1 21.9535 1.75498 22.6949 2.97587 23.1608" stroke="#CC9933" stroke-width="1.5" stroke-linecap="round" stroke-linejoin="round"/>
</svg>
