<svg width="26" height="26" viewBox="0 0 26 26" fill="none" xmlns="http://www.w3.org/2000/svg">
<path d="M13 0C5.824 0 0 5.824 0 13C0 20.176 5.824 26 13 26C20.176 26 26 20.176 26 13C26 5.824 20.176 0 13 0ZM11.7 23.309C6.565 22.672 2.6 18.304 2.6 13C2.6 12.194 2.704 11.427 2.873 10.673L9.1 16.9V18.2C9.1 19.63 10.27 20.8 11.7 20.8V23.309ZM20.67 20.007C20.332 18.954 19.37 18.2 18.2 18.2H16.9V14.3C16.9 13.585 16.315 13 15.6 13H7.8V10.4H10.4C11.115 10.4 11.7 9.815 11.7 9.1V6.5H14.3C15.73 6.5 16.9 5.33 16.9 3.9V3.367C20.709 4.914 23.4 8.645 23.4 13C23.4 15.704 22.36 18.161 20.67 20.007Z" fill="#CC9933"/>
</svg>
