<svg width="1361" height="1710" viewBox="0 0 1361 1710" fill="none" xmlns="http://www.w3.org/2000/svg">
    <rect width="1361" height="1710" fill="white"/>
    <path d="M365 903L366 901V895.858C367.721 895.411 369 893.858 369 892C369 889.794 367.206 888 365 888C362.794 888 361 889.794 361 892C361 893.858 362.279 895.411 364 895.858V901L365 903Z" fill="#DCD8D8"/>
    <path d="M369.267 896.563L368.734 898.491C371.325 899.207 373 900.584 373 902C373 903.892 369.715 906 365 906C360.285 906 357 903.892 357 902C357 900.584 358.675 899.207 361.267 898.49L360.734 896.562C357.197 897.54 355 899.623 355 902C355 905.364 359.393 908 365 908C370.607 908 375 905.364 375 902C375 899.623 372.803 897.54 369.267 896.563Z" fill="#DCD8D8"/>
</svg>
