<svg width="144" height="41" viewBox="0 0 144 41" fill="none" xmlns="http://www.w3.org/2000/svg">
    <g clip-path="url(#clip0_1_231)">
        <path d="M108.126 6.23788C107.079 6.22745 106.138 5.38252 106.138 4.33418C106.138 3.28584 107.079 2.43569 108.126 2.43048C109.098 2.52436 109.967 3.35364 109.967 4.3394C109.967 5.32515 109.098 6.144 108.126 6.23788ZM108.126 0C105.725 0.00521562 103.69 1.95064 103.69 4.33418C103.69 6.71772 105.73 8.66315 108.126 8.66836C110.448 8.57448 112.409 6.67078 112.409 4.3394C112.409 2.00801 110.448 0.0938812 108.126 0Z" fill="#CC9933"/>
        <path d="M119.695 6.23267C118.638 6.23267 117.692 5.37731 117.692 4.33418C117.692 3.29106 118.644 2.4357 119.695 2.4357C120.668 2.52958 121.52 3.35364 121.52 4.33418C121.52 5.31472 120.662 6.13879 119.695 6.23267ZM119.695 0C117.294 0 115.244 1.94543 115.244 4.33418C115.244 6.72294 117.294 8.66315 119.695 8.66836C122.012 8.56405 123.968 6.66035 123.968 4.33418C123.963 2.0028 122.012 0.0938812 119.695 0Z" fill="#CC9933"/>
        <path d="M113.827 15.0471C113.999 15.2766 114.156 15.5113 114.297 15.7616C114.386 15.9285 114.642 16.424 114.836 16.9195C114.909 17.1177 114.972 17.3211 115.024 17.5297V17.5401C115.176 18.2755 115.422 19.5377 115.024 20.2314C115.024 20.2314 114.758 20.7582 113.827 20.8051C113.596 20.8103 112.435 20.7477 112.409 19.4595V19.3082C112.409 19.2196 112.409 19.1413 112.414 19.0527V18.9796C112.414 18.9431 112.414 18.9014 112.42 18.8649C112.42 18.8284 112.42 18.7867 112.425 18.7502C112.425 18.7293 112.425 18.7137 112.43 18.6928C112.43 18.6719 112.43 18.6563 112.435 18.6354C112.435 18.6146 112.435 18.5989 112.44 18.5833C112.44 18.5676 112.44 18.5468 112.446 18.5259C112.587 17.2324 113.079 16.038 113.827 15.0419V15.0471ZM108.141 9.71671C102.832 9.72192 98.4077 14.0144 98.4077 19.2978C98.4077 19.9706 98.9568 20.513 99.6315 20.513C100.306 20.513 100.855 19.9654 100.855 19.2978C100.855 15.36 104.177 12.1472 108.141 12.1472C108.141 12.1472 108.183 12.1472 108.23 12.1472V12.1576C108.387 12.1576 108.544 12.1733 108.696 12.1837C109.124 12.2306 109.752 12.3349 110.427 12.5592C111.002 12.7626 111.541 13.0286 112.038 13.3624C111.844 13.6023 111.672 13.8475 111.504 14.103C111.489 14.1291 111.473 14.1604 111.457 14.1813C111.447 14.1969 111.442 14.2074 111.431 14.2178C111.421 14.2282 111.415 14.2439 111.405 14.2543C110.49 15.7199 109.956 17.4463 109.956 19.2978V19.5064C110.003 21.9578 111.938 23.2408 113.816 23.2408C115.249 23.2408 116.714 22.495 117.346 21.0555C117.786 20.1479 117.76 18.9849 117.577 17.9365C117.451 17.0812 117.216 16.2675 116.881 15.5008C116.808 15.3131 116.755 15.2035 116.755 15.2035C116.755 15.2035 116.374 14.3482 115.594 13.3624C116.735 12.6009 118.11 12.1576 119.59 12.1576H119.69C123.612 12.2046 126.881 15.3913 126.881 19.303C126.881 19.9758 127.43 20.5183 128.105 20.5183C128.78 20.5183 129.329 19.9706 129.329 19.303C129.329 14.0196 124.909 9.72714 119.596 9.72192H119.59C117.451 9.72714 115.469 10.426 113.874 11.6048L113.816 11.5578L113.769 11.5995H113.764C113.764 11.5995 113.764 11.5891 113.753 11.5839C113.67 11.5161 113.141 11.1093 112.252 10.692C111.211 10.1861 110.066 9.86274 108.853 9.76365C108.622 9.74278 108.382 9.72714 108.141 9.72192H108.136L108.141 9.71671Z" fill="#CC9933"/>
        <path d="M2.02412 36.666V40.4369C2.02412 40.8072 1.8306 41.0002 1.45925 41.0002H0.56487C0.19352 41.0002 0 40.8072 0 40.4369V28.3106C0 27.9403 0.19352 27.7473 0.56487 27.7473H13.8341C16.7944 27.7473 18.3164 29.2651 18.3164 32.1962C18.3164 35.1274 16.7944 36.666 13.8341 36.666H2.02412V36.666ZM2.02412 29.458V34.9553H13.5046C15.3561 34.9553 16.2348 34.0426 16.2348 32.1962C16.2348 30.3499 15.3561 29.458 13.5046 29.458H2.02412Z" fill="#333333"/>
        <path d="M38.2124 41C37.6684 41 37.5325 40.8852 37.2762 40.5514L35.3462 37.9854H22.6419L20.7119 40.5514C20.4608 40.88 20.3196 41 19.7966 41H18.9022C18.6302 41 18.4733 40.807 18.4733 40.6088C18.4733 40.5097 18.5152 40.4158 18.5884 40.3167L27.6525 28.1904C27.8878 27.841 28.0238 27.7419 28.5678 27.7419H29.5406C30.0689 27.7419 30.2048 27.841 30.4559 28.1904L39.52 40.3167C39.5775 40.4158 39.6193 40.5097 39.6193 40.6088C39.6193 40.8018 39.4834 41 39.2114 41H38.2176H38.2124ZM34.2165 36.2799L29.0123 29.4004H28.9705L23.7873 36.2799V36.3164H34.2165V36.2799Z" fill="#333333"/>
        <path d="M58.8615 41C58.3333 41 58.1607 40.9426 57.8102 40.6088L53.1501 36.2955H43.7565V40.4367C43.7565 40.807 43.563 41 43.1916 41H42.2972C41.9259 41 41.7324 40.807 41.7324 40.4367V28.3104C41.7324 27.9401 41.9259 27.7471 42.2972 27.7471H55.8803C58.6262 27.7471 60.0488 29.1292 60.0488 31.8674C60.0488 34.6056 58.6262 36.1025 55.8803 36.1025H55.6449V36.139L60.3208 40.2802C60.4358 40.395 60.4934 40.5149 60.4934 40.6297C60.4934 40.8227 60.3365 41 60.1011 41H58.8563H58.8615ZM43.7565 29.4578V34.59H55.4095C57.1251 34.59 57.9619 33.7346 57.9619 32.0239C57.9619 30.3132 57.1251 29.4578 55.4095 29.4578H43.7565Z" fill="#333333"/>
        <path d="M70.7029 41C70.3106 41 70.1171 40.807 70.1171 40.4367V29.4578H62.324C61.9526 29.4578 61.7591 29.2648 61.7591 28.8945V28.3104C61.7591 27.9401 61.9526 27.7471 62.324 27.7471H79.9605C80.3318 27.7471 80.5253 27.9401 80.5253 28.3104V28.8945C80.5253 29.2648 80.3318 29.4578 79.9605 29.4578H72.1464V40.4367C72.1464 40.807 71.9529 41 71.5816 41H70.7029V41Z" fill="#333333"/>
        <path d="M99.0928 41C98.6639 41 98.4495 40.8644 98.1775 40.6297L84.6939 29.4578H84.6573V40.4367C84.6573 40.807 84.4637 41 84.0924 41H83.2765C82.9051 41 82.6907 40.807 82.6907 40.4367V28.3104C82.6907 27.9401 82.9051 27.7471 83.2765 27.7471H85.0704C85.4993 27.7471 85.6928 27.8827 85.9857 28.1174L99.4485 39.2893H99.4903V28.3104C99.4903 27.9401 99.6838 27.7471 100.055 27.7471H100.892C101.263 27.7471 101.457 27.9401 101.457 28.3104V40.4367C101.457 40.807 101.263 41 100.892 41H99.0981H99.0928Z" fill="#333333"/>
        <path d="M106.823 33.4426H119.376C119.747 33.4426 119.92 33.6355 119.92 34.0058V34.59C119.92 34.9603 119.742 35.1533 119.376 35.1533H106.823V39.2945H121.907C122.279 39.2945 122.451 39.4875 122.451 39.8578V40.4419C122.451 40.8122 122.279 41.0052 121.907 41.0052H105.364C104.993 41.0052 104.799 40.8122 104.799 40.4419V28.3156C104.799 27.9453 104.993 27.7523 105.364 27.7523H121.907C122.279 27.7523 122.451 27.9453 122.451 28.3156V28.8998C122.451 29.2701 122.279 29.463 121.907 29.463H106.823V33.4478V33.4426Z" fill="#333333"/>
        <path d="M142.363 41C141.835 41 141.662 40.9426 141.312 40.6088L136.651 36.2955H127.258V40.4367C127.258 40.807 127.064 41 126.693 41H125.799C125.427 41 125.234 40.807 125.234 40.4367V28.3104C125.234 27.9401 125.427 27.7471 125.799 27.7471H139.382C142.128 27.7471 143.55 29.1292 143.55 31.8674C143.55 34.6056 142.128 36.1025 139.382 36.1025H139.146V36.139L143.822 40.2802C143.937 40.395 143.995 40.5149 143.995 40.6297C143.995 40.8227 143.838 41 143.602 41H142.358H142.363ZM127.258 29.4578V34.59H138.911C140.626 34.59 141.463 33.7346 141.463 32.0239C141.463 30.3132 140.626 29.4578 138.911 29.4578H127.258V29.4578Z" fill="#333333"/>
        <path d="M1.65799 24.0649C0.742688 24.0649 0.303345 23.6215 0.303345 22.7088V8.63707C0.303345 7.72433 0.747918 7.28101 1.65799 7.28101H15.8477C21.4023 7.28101 24.2632 10.134 24.2632 15.6729C24.2632 21.2119 21.4023 24.0649 15.8477 24.0649H1.65799ZM5.16227 11.3909V19.955H14.9847C17.8718 19.955 19.2526 18.578 19.2526 15.6729C19.2526 12.7678 17.8928 11.3909 14.9847 11.3909H5.16227V11.3909Z" fill="#333333"/>
        <path d="M32.412 13.8318H45.7858C46.5756 13.8318 46.9679 14.2021 46.9679 15.0106V16.2414C46.9679 17.029 46.5756 17.4202 45.7858 17.4202H32.412V19.955H48.8246C49.7138 19.955 50.1845 20.4244 50.1845 21.311V22.714C50.1845 23.6268 49.7138 24.0701 48.8246 24.0701H28.9077C27.9924 24.0701 27.5531 23.6268 27.5531 22.714V8.63707C27.5531 7.72433 27.9977 7.28101 28.9077 7.28101H48.8246C49.7138 7.28101 50.1845 7.72433 50.1845 8.63707V10.0401C50.1845 10.9267 49.7138 11.3961 48.8246 11.3961H32.412V13.8318V13.8318Z" fill="#333333"/>
        <path d="M79.2282 24.0649C78.3129 24.0649 77.8684 23.6215 77.8684 22.7088V11.49H77.8213L71.1579 23.0322C70.8598 23.6946 70.2949 24.0649 69.3064 24.0649H66.6912C65.7289 24.0649 65.1588 23.6946 64.8659 23.0322L58.1764 11.49H58.1241V22.7088C58.1241 23.6215 57.6795 24.0649 56.7694 24.0649H54.7191C53.83 24.0649 53.3645 23.6215 53.3645 22.7088V8.63707C53.3645 7.72433 53.8352 7.28101 54.7191 7.28101H59.6565C60.645 7.28101 61.2099 7.65131 61.508 8.3137L68.072 19.6838H68.1191L74.6831 8.3137C74.9812 7.65131 75.5461 7.28101 76.5085 7.28101H81.3936C82.3089 7.28101 82.7534 7.72433 82.7534 8.63707V22.714C82.7534 23.6268 82.3089 24.0701 81.3936 24.0701H79.223L79.2282 24.0649Z" fill="#333333"/>
    </g>
    <defs>
        <clipPath id="clip0_1_231">
            <rect width="144" height="41" fill="white"/>
        </clipPath>
    </defs>
</svg>
