<svg width="233" height="151" viewBox="0 0 233 151" fill="none" xmlns="http://www.w3.org/2000/svg">
<g clip-path="url(#clip0_1095_8584)">
<path d="M3.74443 78.6748C1.22328 78.6748 0 77.4428 0 74.9189V35.8284C0 33.2995 1.22825 32.0675 3.74443 32.0675H9.74149C12.193 32.0675 13.4213 33.2995 13.4213 35.8284V74.9139C13.4213 77.4428 12.193 78.6699 9.74149 78.6699H3.74443V78.6748Z" fill="#333333"/>
<path d="M84.6754 78.6749C81.1349 78.6749 80.2497 77.9217 78.6137 75.5973L74.8693 70.2003H38.6284L34.884 75.5973C33.2479 77.9865 32.4324 78.6749 28.8869 78.6749H22.7556C20.9157 78.6749 19.9609 77.4428 19.9609 76.0761C19.9609 75.4626 20.1648 74.914 20.5079 74.3703L47.8229 35.1501C49.3893 32.8257 50.2744 32.0725 53.8199 32.0725H60.2894C63.8299 32.0725 64.7151 32.8257 66.2815 35.1501L93.5964 74.3703C93.9395 74.9189 94.0738 75.4626 94.0738 76.0761C94.0738 77.4428 93.1887 78.6749 91.3488 78.6749H84.6705H84.6754ZM67.9175 59.2019L56.8135 43.0759H56.6792L45.5752 59.2019V59.3366H67.9175V59.2019Z" fill="#333333"/>
<path d="M2.38236 151C1.08946 151 0.408203 150.317 0.408203 149.02V106.383C0.408203 105.086 1.08946 104.403 2.38236 104.403H42.9197C58.2455 104.403 66.1471 112.328 66.1471 127.701C66.1471 143.074 58.2455 151 42.9197 151H2.38236ZM7.4893 110.413V144.99H41.761C53.2032 144.99 58.8621 139.248 58.8621 127.701C58.8621 116.154 53.2081 110.413 41.761 110.413H7.49428H7.4893Z" fill="#333333"/>
<path d="M82.09 124.419H125.959C127.252 124.419 127.869 125.103 127.869 126.4V128.45C127.869 129.746 127.257 130.43 125.959 130.43H82.09V144.985H134.815C136.108 144.985 136.725 145.668 136.725 146.965V149.015C136.725 150.312 136.113 150.995 134.815 150.995H76.9781C75.6852 150.995 75.0039 150.312 75.0039 149.015V106.378C75.0039 105.081 75.6852 104.398 76.9781 104.398H134.815C136.108 104.398 136.725 105.081 136.725 106.378V108.428C136.725 109.725 136.113 110.408 134.815 110.408H82.09V124.414V124.419Z" fill="#333333"/>
<path d="M220.314 151C219.021 151 218.27 150.317 218.27 149.02V110.548H218.136L190 149.499C189.453 150.456 188.707 151 187.206 151H183.461C181.965 151 181.144 150.451 180.667 149.499L152.467 110.548H152.332V149.02C152.332 150.317 151.651 151 150.358 151H147.499C146.206 151 145.455 150.317 145.455 149.02V106.383C145.455 105.086 146.206 104.403 147.499 104.403H154.515C156.012 104.403 156.833 104.951 157.375 105.904L185.371 144.65H185.505L213.571 105.904C214.048 104.946 214.864 104.403 216.366 104.403H223.452C224.744 104.403 225.361 105.086 225.361 106.383V149.02C225.361 150.317 224.749 151 223.452 151H220.319H220.314Z" fill="#333333"/>
<path d="M232.383 50.9718L216.684 35.993C216.684 35.993 216.675 35.983 216.665 35.978C216.65 35.9631 216.625 35.9481 216.605 35.9282C216.55 35.8833 216.496 35.8384 216.431 35.7935C216.406 35.7785 216.376 35.7586 216.351 35.7436C216.287 35.7037 216.227 35.6688 216.162 35.6389C216.137 35.6289 216.108 35.6139 216.083 35.6039C215.988 35.564 215.894 35.5291 215.794 35.5042L214.879 35.2747L216.655 29.2792L214.457 22.4208L209.449 19.3233L209.017 13.1382L201.438 5.99052L195.103 5.5416L190.115 0.67836H181.722L177.763 6.09028C176.197 2.50395 172.631 0 168.479 0C163.934 0 160.09 3.00274 158.812 7.14273C158.091 6.9931 157.34 6.91329 156.575 6.91329C150.543 6.91329 145.655 11.8164 145.655 17.8668C145.655 18.5402 145.714 19.1986 145.834 19.842C142.099 21.5778 139.508 25.3787 139.508 29.778C139.508 30.5611 139.588 31.3243 139.747 32.0625L138.4 32.4017C138.37 32.4067 138.335 32.4216 138.305 32.4316C138.26 32.4466 138.221 32.4615 138.181 32.4765C138.101 32.5064 138.022 32.5413 137.952 32.5812C137.927 32.5962 137.902 32.6012 137.877 32.6162L121.552 42.2978C120.891 42.6868 120.513 43.43 120.582 44.1982C120.652 44.9663 121.159 45.6247 121.88 45.8891L134.76 50.6077V74.041C134.76 74.859 135.252 75.5923 136.008 75.8965L182.298 94.4916C182.298 94.4916 182.338 94.5066 182.358 94.5115C182.438 94.5415 182.517 94.5614 182.597 94.5814C182.632 94.5913 182.666 94.6013 182.696 94.6063C182.811 94.6263 182.925 94.6362 183.034 94.6362C183.154 94.6362 183.273 94.6213 183.387 94.6013C183.422 94.5963 183.452 94.5864 183.487 94.5814C183.571 94.5614 183.656 94.5315 183.74 94.5016C183.76 94.4966 183.785 94.4916 183.805 94.4816L218.683 79.847C219.414 79.5427 219.892 78.8344 219.907 78.0414L220.25 58.8827L231.752 54.2688C232.383 54.0144 232.841 53.4608 232.965 52.7924C233.094 52.124 232.876 51.4357 232.383 50.9718ZM142.835 29.778C142.835 26.8152 144.456 24.2314 146.863 22.8797C147.733 25.1791 150.791 27.1593 150.791 27.1593L152.388 24.5656C151.149 23.8224 149.812 21.922 149.812 21.922C149.275 21.0342 148.912 20.0266 148.768 18.9492C148.718 18.5951 148.693 18.2309 148.693 17.8668C148.693 13.4974 152.219 9.96092 156.575 9.96092C157.186 9.96092 157.783 10.0308 158.355 10.1654C159.086 10.335 159.772 10.6044 160.404 10.9635C160.578 11.0533 160.747 11.158 160.911 11.2678C161.045 11.3575 161.179 11.4473 161.304 11.5471C161.841 11.9511 162.328 12.42 162.741 12.9437C163.268 13.6071 163.686 14.3503 163.979 15.1584C164.098 15.4776 164.188 15.8068 164.262 16.141C164.372 16.6148 164.432 17.1037 164.446 17.6074C164.456 17.6922 164.456 17.782 164.456 17.8668C164.456 17.9366 164.456 18.0015 164.451 18.0763H165.794L167.49 18.0663C167.495 17.9965 167.495 17.9317 167.495 17.8668C167.495 17.7172 167.49 17.5625 167.485 17.4179C167.475 17.0887 167.445 16.7695 167.405 16.4552C167.266 15.3579 166.968 14.3204 166.525 13.3527C166.475 13.233 166.426 13.1233 166.366 13.0086C165.779 11.8214 164.983 10.754 164.024 9.86116C163.785 9.63172 163.527 9.41225 163.258 9.20774C162.706 8.77379 162.104 8.3997 161.473 8.08047C162.368 5.04281 165.163 2.82816 168.479 2.82816C172.144 2.82816 175.177 5.52664 175.71 9.05312L178.867 9.07307L183.064 3.33195H189.041L193.949 8.12037L200.309 8.57427L206.446 14.3603L206.903 20.8696L212.234 24.1666L213.88 29.3092L212.309 34.6363C177.599 50.5827 142.969 31.2445 142.969 31.2445C142.88 30.7706 142.835 30.2768 142.835 29.778ZM136.903 47.141L127.196 43.5846L137.698 37.3547L139.18 36.4768L141.383 37.0704L142.592 37.3996L145.446 38.1727L150.951 39.6591L152.527 40.0831L158.236 41.6244L175.794 46.3679L178.867 47.1959L179.22 47.2907L178.867 47.6398L175.794 50.6775L173.089 53.351L167.883 58.4986L152.144 52.7275L148.027 51.2212L141.02 48.6524L137.43 47.3356L136.903 47.141ZM181.09 55.9797V60.4489L181.06 80.8795V84.1217L181.05 89.6932L172.567 86.2864L167.5 84.2513L164.208 82.9295L147.45 76.1958L138.738 72.6943V52.0641L139.653 52.3983L142.164 53.3211L153.73 57.5609L157.42 58.9126L167.699 62.6785C167.803 62.7184 167.907 62.7433 168.012 62.7633C168.042 62.7683 168.077 62.7733 168.106 62.7782C168.181 62.7882 168.256 62.7932 168.33 62.7982H168.38C168.38 62.7982 168.415 62.7982 168.43 62.7932C168.529 62.7932 168.624 62.7832 168.718 62.7683C168.738 62.7633 168.758 62.7633 168.778 62.7583C168.887 62.7383 169.001 62.7034 169.106 62.6585C169.131 62.6585 169.151 62.6386 169.175 62.6286C169.26 62.5937 169.345 62.5488 169.424 62.4989C169.449 62.484 169.474 62.469 169.504 62.449C169.598 62.3842 169.693 62.3094 169.777 62.2246L175.794 56.279L178.867 53.2413L180.777 51.3559L181.095 51.8347V55.9797H181.09ZM215.949 76.6697L185.023 89.6433V86.9249L185.028 83.6827L185.053 66.2898V59.0922L185.063 57.3414V53.0867C185.168 53.0567 185.262 53.0218 185.357 52.9819L194.288 65.7311L195.456 67.3971C195.516 67.4819 195.58 67.5567 195.65 67.6315C195.67 67.6515 195.69 67.6714 195.715 67.6914C195.769 67.7462 195.834 67.8011 195.899 67.846C195.914 67.861 195.928 67.8759 195.948 67.8859C196.028 67.9408 196.112 67.9906 196.202 68.0355C196.222 68.0455 196.242 68.0505 196.262 68.0605C196.331 68.0954 196.406 68.1253 196.48 68.1453C196.505 68.1553 196.53 68.1652 196.56 68.1702C196.729 68.2151 196.903 68.245 197.082 68.245C197.097 68.245 197.112 68.24 197.127 68.24C197.206 68.24 197.286 68.2301 197.366 68.2151C197.405 68.2101 197.445 68.2101 197.485 68.2001C197.604 68.1752 197.724 68.1403 197.838 68.0954L198.619 67.7712L209.569 63.2621L213.651 61.5861L216.237 60.5187L215.949 76.6697ZM217.52 55.6754L214.666 56.8526L211.871 57.9998L197.798 63.7958L196.451 61.8704L192.845 56.7279L187.599 49.241L186.341 47.4453L186.819 47.3156L188.022 46.9864L189.046 46.7071L192.02 45.8891L214.516 39.729L214.75 39.6641L218.087 42.8464L227.391 51.72L217.52 55.6754Z" fill="#CC9933"/>
<path d="M181.096 51.8347L180.777 51.3558C180.867 51.5254 180.971 51.685 181.096 51.8347Z" fill="#CC9933"/>
<path d="M168.729 24.7203C168.356 22.346 166.884 20.5803 165.128 20.5803C163.373 20.5803 161.981 22.2512 161.558 24.5307C161.478 24.9746 161.434 25.4385 161.434 25.9223C161.434 26.1368 161.444 26.3513 161.463 26.5608C161.493 26.9598 161.553 27.3439 161.642 27.708C161.901 28.7555 162.378 29.6533 162.995 30.2868C163.597 30.9053 164.333 31.2644 165.128 31.2644C166.386 31.2644 167.495 30.3616 168.162 28.98C168.216 28.8702 168.266 28.7555 168.316 28.6408C168.639 27.8427 168.828 26.9149 168.828 25.9223C168.828 25.8026 168.823 25.6829 168.818 25.5682C168.808 25.2789 168.778 24.9946 168.729 24.7203ZM167.306 28.3864C167.291 28.6857 167.247 28.97 167.172 29.2294C166.958 29.9925 166.531 30.5113 166.038 30.5113C165.67 30.5113 165.337 30.222 165.103 29.7531C164.895 29.3341 164.765 28.7755 164.765 28.1619C164.765 28.0223 164.77 27.8876 164.785 27.7629C164.885 26.6556 165.412 25.8076 166.038 25.8076C166.739 25.8076 167.311 26.8601 167.311 28.1619C167.311 28.2368 167.311 28.3116 167.306 28.3864Z" fill="#CC9933"/>
<path d="M185.157 33.0251C185.187 33.0301 185.222 33.0351 185.256 33.0351H189.573C189.936 33.0351 190.234 32.7358 190.234 32.3717V31.005C190.458 31.1397 190.686 31.2295 190.93 31.2943C190.925 31.3292 190.92 31.3642 190.92 31.3991V33.3992C190.92 33.3992 190.9 33.4092 190.89 33.4142C190.194 33.6935 189.707 34.3669 189.707 35.165C189.707 36.2025 190.547 37.0454 191.582 37.0454C192.616 37.0454 193.461 36.2025 193.461 35.165C193.461 34.6961 193.292 34.2721 193.004 33.9429C192.81 33.7035 192.551 33.5189 192.248 33.4042V31.3991C192.248 31.3642 192.243 31.3292 192.238 31.2943C192.531 31.2195 192.815 31.0898 193.078 30.9202V32.3717C193.078 32.7358 193.377 33.0351 193.745 33.0351H197.857C198.131 33.7235 198.807 34.2123 199.593 34.2123C200.632 34.2123 201.467 33.3643 201.467 32.3318C201.467 32.1922 201.452 32.0525 201.423 31.9228C201.239 31.0749 200.493 30.4464 199.593 30.4464C199.021 30.4464 198.509 30.7058 198.165 31.1148C198.016 31.2844 197.902 31.4839 197.822 31.7033H194.406V29.4837C194.694 28.9949 194.918 28.4312 195.067 27.8227C195.207 27.2641 195.281 26.6605 195.281 26.037C195.281 25.5532 195.236 25.0893 195.157 24.6454C194.993 23.7675 194.68 22.9744 194.257 22.341V20.3857H197.857C198.131 21.074 198.807 21.5629 199.593 21.5629C200.632 21.5629 201.467 20.7199 201.467 19.6824C201.467 18.6449 200.632 17.797 199.593 17.797C198.777 17.797 198.081 18.3257 197.822 19.0589H193.591C193.233 19.0589 192.929 19.3532 192.929 19.7223V21.0541C192.71 20.9294 192.477 20.8346 192.233 20.7748C192.243 20.7498 192.243 20.7199 192.243 20.69V18.6698C192.243 18.6299 192.238 18.59 192.228 18.5501C192.944 18.2908 193.456 17.6024 193.456 16.7894C193.456 15.7469 192.616 14.9089 191.582 14.9089C190.547 14.9089 189.702 15.7469 189.702 16.7894C189.702 17.6024 190.214 18.2908 190.93 18.5501C190.92 18.59 190.915 18.6299 190.915 18.6698V20.69C190.915 20.7199 190.915 20.7498 190.925 20.7748C190.632 20.8496 190.353 20.9743 190.085 21.1489V19.7223C190.085 19.3532 189.791 19.0589 189.423 19.0589H185.152C184.893 18.3257 184.202 17.797 183.382 17.797C182.347 17.797 181.502 18.6399 181.502 19.6824C181.502 20.7249 182.347 21.5629 183.382 21.5629C184.172 21.5629 184.844 21.074 185.122 20.3857H188.762V22.5804C188.265 23.4283 187.942 24.5057 187.892 25.6829C187.887 25.7976 187.882 25.9173 187.882 26.037C187.882 26.9947 188.061 27.8926 188.364 28.6707C188.374 28.6956 188.384 28.7255 188.394 28.7505C188.543 29.1046 188.707 29.4338 188.906 29.7231V31.7033H185.256C185.212 31.7033 185.167 31.7083 185.127 31.7183C184.849 31.02 184.177 30.5262 183.382 30.5262C182.81 30.5262 182.298 30.7806 181.954 31.1896C181.676 31.5138 181.502 31.9478 181.502 32.4116C181.502 33.4491 182.347 34.2921 183.382 34.2921C184.202 34.2921 184.903 33.7584 185.157 33.0251ZM199.354 31.409C199.428 31.3841 199.508 31.3741 199.593 31.3741C199.846 31.3741 200.075 31.4739 200.244 31.6285C200.433 31.8081 200.547 32.0575 200.547 32.3318C200.547 32.8556 200.12 33.2795 199.593 33.2795C199.14 33.2795 198.762 32.9653 198.668 32.5463C198.688 32.4914 198.697 32.4316 198.697 32.3717C198.697 32.2919 198.683 32.2221 198.658 32.1572C198.727 31.7931 198.996 31.4988 199.354 31.409ZM199.593 18.7297C200.12 18.7297 200.547 19.1537 200.547 19.6824C200.547 20.2111 200.12 20.6351 199.593 20.6351C199.065 20.6351 198.643 20.2061 198.643 19.6824C198.643 19.1587 199.065 18.7297 199.593 18.7297ZM183.382 20.6351C182.859 20.6351 182.432 20.2061 182.432 19.6824C182.432 19.1587 182.859 18.7297 183.382 18.7297C183.904 18.7297 184.336 19.1537 184.336 19.6824C184.336 20.2111 183.904 20.6351 183.382 20.6351ZM192.531 35.165C192.531 35.6887 192.109 36.1227 191.582 36.1227C191.054 36.1227 190.632 35.6887 190.632 35.165C190.632 34.6412 191.059 34.2123 191.582 34.2123C192.104 34.2123 192.531 34.6362 192.531 35.165ZM190.632 16.7894C190.632 16.2607 191.054 15.8367 191.582 15.8367C192.109 15.8367 192.531 16.2607 192.531 16.7894C192.531 17.3181 192.104 17.7471 191.582 17.7471C191.059 17.7471 190.632 17.3181 190.632 16.7894ZM189.428 27.8177C189.538 26.7353 190.055 25.9223 190.677 25.9223C191.298 25.9223 191.825 26.7653 191.93 27.8726C191.94 28.0023 191.945 28.137 191.945 28.2716C191.945 28.7255 191.875 29.1545 191.751 29.5136C191.532 30.182 191.134 30.6259 190.677 30.6259C190.517 30.6259 190.368 30.5711 190.234 30.4763C189.951 30.2868 189.717 29.9177 189.573 29.4388C189.523 29.2842 189.483 29.1196 189.458 28.945C189.433 28.8004 189.413 28.6557 189.409 28.5011C189.404 28.4213 189.404 28.3465 189.404 28.2716C189.404 28.117 189.413 27.9674 189.428 27.8177ZM182.432 32.4116C182.432 31.9577 182.74 31.5836 183.158 31.4889C183.232 31.4689 183.307 31.4589 183.382 31.4589C183.62 31.4589 183.844 31.5487 184.008 31.7033C184.207 31.8679 184.336 32.1223 184.336 32.4116C184.336 32.9354 183.904 33.3593 183.382 33.3593C182.859 33.3593 182.432 32.9354 182.432 32.4116Z" fill="#CC9933"/>
</g>
<defs>
<clipPath id="clip0_1095_8584">
<rect width="233" height="151" fill="white"/>
</clipPath>
</defs>
</svg>
