<svg width="16" height="17" viewBox="0 0 16 17" fill="none" xmlns="http://www.w3.org/2000/svg">
<path d="M11.5556 9.31765H8.88889C8.4 9.31765 8 9.69882 8 10.1647V12.7059C8 13.1718 8.4 13.5529 8.88889 13.5529H11.5556C12.0444 13.5529 12.4444 13.1718 12.4444 12.7059V10.1647C12.4444 9.69882 12.0444 9.31765 11.5556 9.31765ZM11.5556 0.847059V1.69412H4.44444V0.847059C4.44444 0.381176 4.04444 0 3.55556 0C3.06667 0 2.66667 0.381176 2.66667 0.847059V1.69412H1.77778C0.791111 1.69412 0.00888888 2.45647 0.00888888 3.38824L0 15.2471C0 16.1788 0.791111 16.9412 1.77778 16.9412H14.2222C15.2 16.9412 16 16.1788 16 15.2471V3.38824C16 2.45647 15.2 1.69412 14.2222 1.69412H13.3333V0.847059C13.3333 0.381176 12.9333 0 12.4444 0C11.9556 0 11.5556 0.381176 11.5556 0.847059ZM13.3333 15.2471H2.66667C2.17778 15.2471 1.77778 14.8659 1.77778 14.4V5.92941H14.2222V14.4C14.2222 14.8659 13.8222 15.2471 13.3333 15.2471Z" fill="black"/>
</svg>
