<svg width="15" height="18" viewBox="0 0 15 18" fill="none" xmlns="http://www.w3.org/2000/svg">
<path fill-rule="evenodd" clip-rule="evenodd" d="M1 15.3414L1 5.74141L5.8 0.941406H12.2C13.08 0.941406 13.8 1.66141 13.8 2.54141V15.3414C13.8 16.2214 13.088 16.9414 12.208 16.9414H2.6C1.72 16.9414 1 16.2214 1 15.3414ZM2.60033 15.3419H12.2083V2.5419H6.60033L6.60033 6.5419H2.60033L2.60033 15.3419Z" fill="black"/>
<path d="M1 5.74141L0.823223 5.56463L0.75 5.63785V5.74141H1ZM5.8 0.941406V0.691406H5.69645L5.62322 0.764629L5.8 0.941406ZM12.2083 15.3419V15.5919H12.4583V15.3419H12.2083ZM2.60033 15.3419H2.35033V15.5919H2.60033V15.3419ZM12.2083 2.5419H12.4583V2.2919H12.2083V2.5419ZM6.60033 2.5419V2.2919H6.35033V2.5419H6.60033ZM6.60033 6.5419V6.7919H6.85033V6.5419H6.60033ZM2.60033 6.5419V6.2919H2.35033V6.5419H2.60033ZM0.75 5.74141L0.75 15.3414H1.25L1.25 5.74141H0.75ZM5.62322 0.764629L0.823223 5.56463L1.17678 5.91818L5.97678 1.11818L5.62322 0.764629ZM12.2 0.691406H5.8V1.19141H12.2V0.691406ZM14.05 2.54141C14.05 1.52334 13.2181 0.691406 12.2 0.691406V1.19141C12.9419 1.19141 13.55 1.79948 13.55 2.54141H14.05ZM14.05 15.3414V2.54141H13.55V15.3414H14.05ZM12.208 17.1914C13.2277 17.1914 14.05 16.3578 14.05 15.3414H13.55C13.55 16.085 12.9483 16.6914 12.208 16.6914V17.1914ZM2.6 17.1914H12.208V16.6914H2.6V17.1914ZM0.75 15.3414C0.75 16.3595 1.58193 17.1914 2.6 17.1914V16.6914C1.85807 16.6914 1.25 16.0833 1.25 15.3414H0.75ZM12.2083 15.0919H2.60033V15.5919H12.2083V15.0919ZM11.9583 2.5419V15.3419H12.4583V2.5419H11.9583ZM6.60033 2.7919H12.2083V2.2919H6.60033V2.7919ZM6.85033 6.5419L6.85033 2.5419H6.35033L6.35033 6.5419H6.85033ZM2.60033 6.7919H6.60033V6.2919H2.60033V6.7919ZM2.85033 15.3419L2.85033 6.5419H2.35033L2.35033 15.3419H2.85033Z" fill="black"/>
</svg>
