<svg width="16" height="17" viewBox="0 0 16 17" fill="none" xmlns="http://www.w3.org/2000/svg">
<path d="M4.55914 8.43533L3.9732 10.3435C3.9373 10.4604 4.00297 10.5843 4.11987 10.6202L6.02805 11.2061C6.14495 11.242 6.26881 11.1763 6.3047 11.0594L6.89064 9.15126C6.92654 9.03436 6.86088 8.9105 6.74398 8.87461L4.8358 8.28867C4.7189 8.25277 4.59503 8.31843 4.55914 8.43533Z" fill="black"/>
<path d="M6.18238 11.375H4.18626C4.06397 11.375 3.96484 11.4741 3.96484 11.5964V13.5925C3.96484 13.7148 4.06397 13.8139 4.18626 13.8139H6.18238C6.30466 13.8139 6.40379 13.7148 6.40379 13.5925V11.5964C6.40379 11.4741 6.30466 11.375 6.18238 11.375Z" fill="black"/>
<path d="M8.99683 11.375H7.00071C6.87843 11.375 6.7793 11.4741 6.7793 11.5964V13.5925C6.7793 13.7148 6.87843 13.8139 7.00071 13.8139H8.99683C9.11912 13.8139 9.21825 13.7148 9.21825 13.5925V11.5964C9.21825 11.4741 9.11912 11.375 8.99683 11.375Z" fill="black"/>
<path d="M6.18238 14.1948H4.18626C4.06397 14.1948 3.96484 14.294 3.96484 14.4162V16.4124C3.96484 16.5346 4.06397 16.6338 4.18626 16.6338H6.18238C6.30466 16.6338 6.40379 16.5346 6.40379 16.4124V14.4162C6.40379 14.294 6.30466 14.1948 6.18238 14.1948Z" fill="black"/>
<path d="M8.99683 14.1948H7.00071C6.87843 14.1948 6.7793 14.294 6.7793 14.4162V16.4124C6.7793 16.5346 6.87843 16.6338 7.00071 16.6338H8.99683C9.11912 16.6338 9.21825 16.5346 9.21825 16.4124V14.4162C9.21825 14.294 9.11912 14.1948 8.99683 14.1948Z" fill="black"/>
<path d="M11.7957 14.1948H9.79954C9.67726 14.1948 9.57812 14.294 9.57812 14.4162V16.4124C9.57812 16.5346 9.67726 16.6338 9.79954 16.6338H11.7957C11.9179 16.6338 12.0171 16.5346 12.0171 16.4124V14.4162C12.0171 14.294 11.9179 14.1948 11.7957 14.1948Z" fill="black"/>
<path d="M15.9851 4.11216C15.9851 4.00555 15.9428 3.90332 15.8674 3.82794C15.792 3.75256 15.6898 3.71021 15.5832 3.71021H15.6172L8.27995 0.508242L8.21183 0.484395C8.04373 0.421672 7.85767 0.427788 7.69406 0.501423V0.501423L0.356777 3.7034H0.404465C0.297862 3.7034 0.195626 3.74575 0.120246 3.82113C0.0448657 3.89651 0.00251836 3.99874 0.00251836 4.10535V5.99587C0.000922983 6.00603 0.000922983 6.01637 0.00251836 6.02653C-0.000839454 6.04911 -0.000839454 6.07207 0.00251836 6.09466V16.232C0.00206846 16.2823 0.0116042 16.3323 0.0305754 16.379C0.0495467 16.4257 0.0775756 16.4681 0.113047 16.5039C0.148519 16.5397 0.19073 16.5681 0.23724 16.5875C0.283751 16.6069 0.333639 16.6169 0.384028 16.6169H2.54706C2.59985 16.6169 2.65211 16.6065 2.70088 16.5863C2.74965 16.5661 2.79396 16.5365 2.83128 16.4991C2.86861 16.4618 2.89822 16.4175 2.91841 16.3687C2.93861 16.32 2.94901 16.2677 2.94901 16.2149V6.93603C2.94991 6.82098 2.99625 6.71095 3.07792 6.62991C3.15959 6.54888 3.26997 6.50341 3.38502 6.50341H12.606C12.6628 6.50341 12.7191 6.5146 12.7716 6.53635C12.8241 6.55809 12.8718 6.58995 12.9119 6.63012C12.9521 6.67029 12.984 6.71798 13.0057 6.77047C13.0274 6.82296 13.0386 6.87922 13.0386 6.93603V16.2354C13.0386 16.3384 13.0795 16.4371 13.1524 16.51C13.2252 16.5828 13.324 16.6237 13.427 16.6237H15.6172C15.6673 16.6237 15.7169 16.6138 15.7632 16.5946C15.8095 16.5755 15.8516 16.5474 15.887 16.512C15.9224 16.4765 15.9505 16.4345 15.9697 16.3882C15.9889 16.3419 15.9987 16.2923 15.9987 16.2422V6.10147C16.0004 6.07879 16.0004 6.05602 15.9987 6.03334C16.0003 6.02319 16.0003 6.01285 15.9987 6.00269L15.9851 4.11216Z" fill="black"/>
</svg>
