<svg width="16" height="17" viewBox="0 0 16 17" fill="none" xmlns="http://www.w3.org/2000/svg">
<path d="M8.46449 10.5131V15.5945C8.46449 16.0603 8.84539 16.4414 9.31094 16.4414H14.3896C14.8552 16.4414 15.2361 16.0603 15.2361 15.5945V10.5131C15.2361 10.0473 14.8552 9.66623 14.3896 9.66623H9.31094C8.84539 9.66623 8.46449 10.0473 8.46449 10.5131ZM0.846449 16.4414H5.92514C6.39069 16.4414 6.77159 16.0603 6.77159 15.5945V10.5131C6.77159 10.0473 6.39069 9.66623 5.92514 9.66623H0.846449C0.380902 9.66623 0 10.0473 0 10.5131V15.5945C0 16.0603 0.380902 16.4414 0.846449 16.4414ZM0 2.04416V7.12554C0 7.59133 0.380902 7.97244 0.846449 7.97244H5.92514C6.39069 7.97244 6.77159 7.59133 6.77159 7.12554V2.04416C6.77159 1.57837 6.39069 1.19726 5.92514 1.19726H0.846449C0.380902 1.19726 0 1.57837 0 2.04416ZM10.9615 0.689124L7.36411 4.27997C7.03399 4.61026 7.03399 5.1438 7.36411 5.47409L10.9615 9.0734C11.2916 9.40369 11.8249 9.40369 12.155 9.0734L15.7524 5.47409C16.0825 5.1438 16.0825 4.61026 15.7524 4.27997L12.1635 0.689124C11.8334 0.358834 11.2916 0.358834 10.9615 0.689124V0.689124Z" fill="black"/>
</svg>
