<svg width="18" height="16" viewBox="0 0 18 16" fill="none" xmlns="http://www.w3.org/2000/svg">
<path d="M3.88586 2.36823V3.72234C3.88586 3.93046 3.80319 4.13005 3.65603 4.27721C3.50887 4.42437 3.30928 4.50704 3.10116 4.50704C2.89305 4.50704 2.69345 4.42437 2.54629 4.27721C2.39913 4.13005 2.31646 3.93046 2.31646 3.72234V1.58353C2.31646 1.37541 2.39913 1.17582 2.54629 1.02866C2.69345 0.881502 2.89305 0.798828 3.10116 0.798828H5.23997C5.44809 0.798828 5.64768 0.881502 5.79484 1.02866M3.88586 2.36823L5.79484 1.02866M3.88586 2.36823H5.23997C5.44809 2.36823 5.64768 2.28556 5.79484 2.1384C5.942 1.99124 6.02467 1.79165 6.02467 1.58353C6.02467 1.37541 5.942 1.17582 5.79484 1.02866M3.88586 2.36823L5.79484 1.02866M16.4671 7.71527L16.4703 7.71525C16.6357 7.71419 16.7965 7.6609 16.9298 7.56298C17.0632 7.46507 17.1621 7.32753 17.2126 7.17003C17.263 7.01252 17.2625 6.84309 17.2109 6.68593C17.1593 6.52878 17.0594 6.39193 16.9255 6.29494L16.9242 6.29401L9.43832 0.946988L9.43802 0.946768C9.30512 0.852145 9.14603 0.801297 8.98289 0.801297C8.81975 0.801297 8.66066 0.852145 8.52776 0.946767L8.52745 0.946988L1.04162 6.29401L1.03267 6.3004L1.02432 6.30755C0.875178 6.43526 0.779331 6.61425 0.755704 6.80917C0.732076 7.0041 0.782384 7.2008 0.896698 7.36044C1.01101 7.52009 1.18102 7.63107 1.37317 7.67149C1.56531 7.71191 1.76563 7.67883 1.93458 7.57877L1.94375 7.57334L1.95243 7.56714L8.98289 2.54838L16.012 7.56616C16.0123 7.56636 16.0125 7.56655 16.0128 7.56675C16.1451 7.66229 16.3039 7.7142 16.4671 7.71527Z" fill="black" stroke="black" stroke-width="0.5"/>
<path d="M11.1236 15.2017H13.7971C14.2889 15.2017 14.7605 15.0063 15.1082 14.6586C15.4559 14.3109 15.6512 13.8393 15.6512 13.3475V8.00052C15.6512 7.79241 15.5685 7.59281 15.4214 7.44565C15.2742 7.29849 15.0746 7.21582 14.8665 7.21582C14.6584 7.21582 14.4588 7.29849 14.3116 7.44565C14.1645 7.59281 14.0818 7.79241 14.0818 8.00052V13.3475C14.0818 13.4231 14.0518 13.4955 13.9984 13.5489C13.945 13.6023 13.8726 13.6322 13.7971 13.6322H11.9083V10.1393C11.9083 9.93122 11.8256 9.73162 11.6785 9.58446C11.5313 9.4373 11.3317 9.35463 11.1236 9.35463H6.84598C6.63786 9.35463 6.43827 9.4373 6.29111 9.58446C6.14395 9.73162 6.06128 9.93122 6.06128 10.1393V13.6322H4.17247C4.09696 13.6322 4.02454 13.6023 3.97115 13.5489C3.91776 13.4955 3.88776 13.4231 3.88776 13.3475V8.00052C3.88776 7.79241 3.80509 7.59281 3.65793 7.44565C3.51077 7.29849 3.31118 7.21582 3.10306 7.21582C2.89495 7.21582 2.69535 7.29849 2.54819 7.44565C2.40103 7.59281 2.31836 7.79241 2.31836 8.00052V13.3475C2.31836 13.8393 2.5137 14.3109 2.86141 14.6586C3.20913 15.0063 3.68073 15.2017 4.17247 15.2017H6.84598C7.0541 15.2017 7.25369 15.119 7.40085 14.9718C7.54801 14.8247 7.63068 14.6251 7.63068 14.417V10.924H10.3389V14.417C10.3389 14.6251 10.4216 14.8247 10.5687 14.9718C10.7159 15.119 10.9155 15.2017 11.1236 15.2017Z" fill="black" stroke="black" stroke-width="0.5"/>
</svg>
