<svg width="18" height="13" viewBox="0 0 18 13" fill="none" xmlns="http://www.w3.org/2000/svg">
<path d="M14.562 1.95442L14.4893 1.88367H14.3878H11.9167V1.37177C11.9167 0.812908 11.4636 0.359863 10.9048 0.359863H1.7619C1.20305 0.359863 0.75 0.812908 0.75 1.37177V8.99082C0.75 9.54967 1.20305 10.0027 1.7619 10.0027H1.9072C2.03109 11.075 2.94214 11.9075 4.04762 11.9075C5.1531 11.9075 6.06415 11.075 6.18803 10.0027H11.0501C11.1739 11.075 12.085 11.9075 13.1905 11.9075C14.296 11.9075 15.207 11.075 15.3309 10.0027H16.2381C16.797 10.0027 17.25 9.54967 17.25 8.99082V4.67336V4.56773L17.1743 4.49411L14.562 1.95442ZM13.9769 3.14558L15.8137 4.93129H11.9167V3.14558H13.9769ZM13.1905 7.59796C12.7139 7.59796 12.2734 7.75282 11.9167 8.01466V6.1932H15.9881V8.74082H15.0933C14.7311 8.06119 14.0151 7.59796 13.1905 7.59796ZM10.6548 2.13367V8.74082H5.95042C5.58827 8.06119 4.87229 7.59796 4.04762 7.59796C3.22295 7.59796 2.50697 8.06119 2.14482 8.74082H2.0119V1.62177H10.6548V2.13367ZM4.94048 9.75272C4.94048 10.2458 4.54073 10.6456 4.04762 10.6456C3.55451 10.6456 3.15476 10.2458 3.15476 9.75272C3.15476 9.25961 3.55451 8.85986 4.04762 8.85986C4.54073 8.85986 4.94048 9.25961 4.94048 9.75272ZM14.0833 9.75272C14.0833 10.2458 13.6836 10.6456 13.1905 10.6456C12.6974 10.6456 12.2976 10.2458 12.2976 9.75272C12.2976 9.25961 12.6974 8.85986 13.1905 8.85986C13.6836 8.85986 14.0833 9.25961 14.0833 9.75272Z" fill="black" stroke="black" stroke-width="0.5"/>
</svg>
