<svg width="18" height="19" viewBox="0 0 18 19" fill="none" xmlns="http://www.w3.org/2000/svg">
<mask id="path-1-outside-1_448_2244" maskUnits="userSpaceOnUse" x="0" y="0.179199" width="18" height="19" fill="black">
<rect fill="white" y="0.179199" width="18" height="19"/>
<path d="M5.28562 8.3046C5.26215 8.3046 5.23892 8.30908 5.21725 8.31782C5.19558 8.32656 5.17589 8.33941 5.15933 8.35556C5.14277 8.37171 5.12965 8.39086 5.12073 8.41195C5.1118 8.43304 5.10725 8.4556 5.10733 8.4784V9.45048C4.6904 9.5444 4.29206 9.70385 3.92806 9.92261L3.22235 9.23696C3.20579 9.22081 3.18611 9.20796 3.16444 9.19922C3.14277 9.19048 3.11954 9.186 3.09607 9.186C3.07261 9.186 3.04937 9.19048 3.0277 9.19922C3.00603 9.20796 2.98635 9.22081 2.96979 9.23696L1.95889 10.2186C1.94227 10.2347 1.92909 10.2538 1.92009 10.2748C1.91109 10.2959 1.90646 10.3185 1.90646 10.3413C1.90646 10.3641 1.91109 10.3867 1.92009 10.4077C1.92909 10.4288 1.94227 10.4479 1.95889 10.464L2.66646 11.1515C2.44064 11.5045 2.27566 11.8909 2.17803 12.2956H1.17828C1.131 12.2956 1.08565 12.3138 1.05222 12.3463C1.01878 12.3788 1 12.4228 1 12.4688V13.857C1 13.9533 1.07986 14.0309 1.17828 14.0309H2.17865C2.27557 14.4359 2.43992 14.8227 2.66522 15.1761L1.95951 15.8619C1.94289 15.878 1.9297 15.8971 1.92071 15.9182C1.91171 15.9392 1.90708 15.9618 1.90708 15.9846C1.90708 16.0074 1.91171 16.0299 1.92071 16.051C1.9297 16.0721 1.94289 16.0912 1.95951 16.1073L2.96979 17.0895C2.98635 17.1057 3.00603 17.1185 3.0277 17.1273C3.04937 17.136 3.07261 17.1405 3.09607 17.1405C3.11954 17.1405 3.14277 17.136 3.16444 17.1273C3.18611 17.1185 3.20579 17.1057 3.22235 17.0895L3.92992 16.402C4.29314 16.6217 4.69085 16.7821 5.10733 16.8772V17.848C5.10733 17.9443 5.18657 18.0213 5.28562 18.0213H6.71436C6.81341 18.0213 6.89265 17.9443 6.89265 17.848V16.876C7.30958 16.7821 7.70792 16.6226 8.07192 16.4038L8.77762 17.0895C8.79419 17.1057 8.81387 17.1185 8.83554 17.1273C8.85721 17.136 8.88044 17.1405 8.90391 17.1405C8.92737 17.1405 8.95061 17.136 8.97228 17.1273C8.99395 17.1185 9.01363 17.1057 9.03019 17.0895L10.0405 16.1073C10.0571 16.0912 10.0703 16.0721 10.0793 16.051C10.0883 16.0299 10.0929 16.0074 10.0929 15.9846C10.0929 15.9618 10.0883 15.9392 10.0793 15.9182C10.0703 15.8971 10.0571 15.878 10.0405 15.8619L9.33352 15.175C9.55934 14.822 9.72432 14.4356 9.82194 14.0309H10.8211C10.9201 14.0309 11 13.9527 11 13.857V12.4694C11.0001 12.4465 10.9955 12.4239 10.9865 12.4028C10.9776 12.3817 10.9644 12.3625 10.9478 12.3463C10.9311 12.3302 10.9114 12.3174 10.8896 12.3086C10.8679 12.2999 10.8446 12.2955 10.8211 12.2956H9.82133C9.72441 11.8906 9.56005 11.5037 9.33476 11.1503L10.0405 10.4646C10.0572 10.4485 10.0704 10.4294 10.0795 10.4082C10.0886 10.3871 10.0932 10.3644 10.0932 10.3416C10.0932 10.3187 10.0886 10.2961 10.0795 10.275C10.0704 10.2539 10.0572 10.2347 10.0405 10.2186L9.03019 9.23696C9.01363 9.22081 8.99395 9.20796 8.97228 9.19922C8.95061 9.19048 8.92737 9.186 8.90391 9.186C8.88044 9.186 8.85721 9.19048 8.83554 9.19922C8.81387 9.20796 8.79419 9.22081 8.77762 9.23696L8.07006 9.92386C7.7068 9.70443 7.30909 9.54409 6.89265 9.44923V8.4784C6.89273 8.4556 6.88818 8.43304 6.87925 8.41195C6.87033 8.39086 6.85721 8.37171 6.84065 8.35556C6.82408 8.33941 6.8044 8.32656 6.78273 8.31782C6.76106 8.30908 6.73783 8.3046 6.71436 8.3046H5.28562ZM5.99999 10.734C6.66295 10.734 7.29875 10.99 7.76753 11.4455C8.23631 11.901 8.49967 12.5188 8.49967 13.163C8.49976 13.482 8.43516 13.7978 8.30957 14.0926C8.18399 14.3873 7.99988 14.6552 7.76775 14.8808C7.53563 15.1064 7.26004 15.2853 6.95672 15.4074C6.6534 15.5295 6.3283 15.5924 5.99999 15.5924C5.67162 15.5925 5.34646 15.5297 5.04307 15.4076C4.73968 15.2856 4.46402 15.1067 4.23183 14.881C3.99963 14.6554 3.81547 14.3875 3.68984 14.0927C3.56422 13.7979 3.4996 13.482 3.49969 13.163C3.49968 12.8439 3.56436 12.528 3.69002 12.2333C3.81568 11.9386 3.99986 11.6708 4.23204 11.4452C4.46423 11.2197 4.73986 11.0408 5.04321 10.9188C5.34656 10.7967 5.67167 10.734 5.99999 10.734ZM12.5637 7.38972C12.5492 7.39335 12.5357 7.39976 12.5238 7.40852C12.5119 7.41728 12.5019 7.42822 12.4945 7.44075C12.487 7.45328 12.4821 7.46713 12.4802 7.4815C12.4783 7.49587 12.4793 7.51047 12.4832 7.52446L12.6472 8.11876C12.4082 8.24277 12.1915 8.40387 12.0059 8.59574L11.4587 8.28896C11.4459 8.28146 11.4317 8.27656 11.4169 8.2745C11.4021 8.27244 11.3871 8.27329 11.3727 8.27699C11.3582 8.2807 11.3447 8.28713 11.3329 8.29601C11.3211 8.30489 11.3112 8.31604 11.3039 8.32869L10.8514 9.09077C10.8439 9.10327 10.839 9.1171 10.837 9.13145C10.835 9.1458 10.836 9.16034 10.8398 9.17433C10.8437 9.18831 10.8504 9.20141 10.8595 9.21288C10.8686 9.22434 10.8799 9.23398 10.8929 9.24115L11.4414 9.54851C11.3629 9.80046 11.3274 10.0631 11.3361 10.3262L10.7245 10.4856C10.7101 10.4893 10.6966 10.4956 10.6848 10.5044C10.673 10.5131 10.663 10.524 10.6556 10.5364C10.6481 10.5489 10.6432 10.5627 10.6412 10.577C10.6393 10.5913 10.6402 10.6058 10.644 10.6198L10.8786 11.4691C10.8824 11.4831 10.8889 11.4962 10.8979 11.5076C10.9069 11.5191 10.9181 11.5288 10.9309 11.5361C10.9438 11.5433 10.9579 11.5481 10.9727 11.55C10.9874 11.5519 11.0023 11.551 11.0167 11.5473L11.6289 11.3873C11.7565 11.6198 11.9223 11.8305 12.1198 12.0111L11.8035 12.5428C11.796 12.5553 11.7911 12.5691 11.7891 12.5835C11.7871 12.5978 11.7881 12.6124 11.7919 12.6264C11.7958 12.6403 11.8025 12.6534 11.8116 12.6649C11.8207 12.6764 11.832 12.686 11.845 12.6932L12.6287 13.1323C12.6831 13.1635 12.7519 13.1443 12.7834 13.0925L13.0998 12.5596C13.3591 12.6358 13.6294 12.6704 13.9002 12.6619L14.0642 13.2561C14.068 13.2702 14.0745 13.2834 14.0835 13.2949C14.0926 13.3064 14.1038 13.3161 14.1167 13.3234C14.1296 13.3307 14.1439 13.3354 14.1587 13.3373C14.1735 13.3391 14.1885 13.3381 14.2029 13.3343L15.0764 13.1064C15.0908 13.1028 15.1043 13.0964 15.1162 13.0876C15.1281 13.0789 15.1381 13.0679 15.1456 13.0554C15.1531 13.0429 15.1579 13.029 15.1598 13.0146C15.1618 13.0003 15.1608 12.9857 15.1568 12.9717L14.9928 12.3774C15.2319 12.2534 15.4485 12.0923 15.6341 11.9004L16.182 12.2072C16.1948 12.2145 16.209 12.2193 16.2237 12.2213C16.2385 12.2232 16.2535 12.2223 16.2679 12.2186C16.2823 12.2149 16.2957 12.2085 16.3076 12.1998C16.3194 12.191 16.3293 12.18 16.3367 12.1674L16.7886 11.4054C16.7961 11.3929 16.801 11.379 16.803 11.3647C16.805 11.3503 16.804 11.3357 16.8002 11.3217C16.7963 11.3077 16.7897 11.2946 16.7806 11.2832C16.7714 11.2717 16.7601 11.2622 16.7471 11.255L16.1987 10.9482C16.2772 10.6961 16.3127 10.4331 16.3039 10.1698L16.9161 10.0111C16.9305 10.0074 16.944 10.0009 16.9558 9.99214C16.9676 9.98335 16.9775 9.97236 16.985 9.95984C16.9924 9.94731 16.9972 9.9335 16.9991 9.91916C17.001 9.90482 16.9999 9.89029 16.996 9.87635L16.762 9.02704C16.7583 9.01301 16.7517 8.99981 16.7427 8.98827C16.7337 8.97672 16.7224 8.96705 16.7095 8.95978C16.6966 8.9525 16.6823 8.94778 16.6675 8.9459C16.6528 8.94402 16.6377 8.94503 16.6233 8.94884L16.0111 9.10883C15.8837 8.87657 15.7181 8.66608 15.5208 8.48567L15.8365 7.95333C15.8441 7.94087 15.849 7.92706 15.8511 7.91273C15.8531 7.8984 15.8522 7.88383 15.8484 7.86985C15.8446 7.85587 15.838 7.84279 15.8289 7.8313C15.8199 7.81982 15.8086 7.81018 15.7957 7.80296L15.0114 7.36387C14.9986 7.35638 14.9844 7.3514 14.9696 7.34934C14.9548 7.34727 14.9398 7.34813 14.9253 7.35183C14.9109 7.35554 14.8974 7.36204 14.8856 7.37092C14.8738 7.3798 14.8639 7.39087 14.8566 7.40352L14.5403 7.93711C14.281 7.86071 14.0106 7.82596 13.7399 7.83424L13.5758 7.23993C13.5721 7.22597 13.5655 7.21288 13.5565 7.20138C13.5476 7.18989 13.5363 7.18023 13.5235 7.17297C13.5107 7.1657 13.4965 7.16094 13.4818 7.15902C13.4671 7.15709 13.4521 7.15802 13.4378 7.16173L12.5637 7.38972ZM13.4105 8.76234C13.816 8.65687 14.2481 8.71216 14.6116 8.91609C14.9752 9.12002 15.2405 9.45588 15.3494 9.84984C15.4581 10.244 15.4013 10.6639 15.1914 11.0173C14.9815 11.3707 14.6357 11.6287 14.2301 11.7344C14.0293 11.7867 13.8197 11.8 13.6136 11.7737C13.4074 11.7473 13.2086 11.6817 13.0285 11.5806C12.8484 11.4796 12.6905 11.345 12.5639 11.1847C12.4373 11.0244 12.3445 10.8414 12.2907 10.6462C12.1822 10.2521 12.2392 9.83225 12.4492 9.47897C12.6592 9.12569 13.005 8.86793 13.4105 8.76234ZM8.80919 1.1792C8.77449 1.17936 8.74127 1.19286 8.7168 1.21676C8.69232 1.24065 8.67858 1.27299 8.67858 1.3067V2.01948C8.37281 2.08842 8.08069 2.20545 7.81378 2.36594L7.29626 1.8625C7.28417 1.85059 7.26976 1.84113 7.25387 1.83467C7.23798 1.82821 7.22093 1.8249 7.20371 1.8249C7.18649 1.8249 7.16944 1.82821 7.15356 1.83467C7.13767 1.84113 7.12326 1.85059 7.11117 1.8625L6.37018 2.58313C6.35792 2.59488 6.34818 2.60889 6.34154 2.62433C6.33489 2.63976 6.33147 2.65627 6.33147 2.67301C6.33147 2.68974 6.33489 2.70632 6.34154 2.72176C6.34818 2.7372 6.35792 2.7512 6.37018 2.76295L6.88893 3.26702C6.72329 3.5257 6.60223 3.80895 6.53051 4.10554H5.79756C5.78028 4.10538 5.76314 4.10851 5.74715 4.11486C5.73115 4.12122 5.71662 4.1306 5.7044 4.14247C5.69218 4.15435 5.68252 4.16849 5.67598 4.18403C5.66944 4.19958 5.66616 4.21622 5.66633 4.23301V5.25076C5.66633 5.32174 5.72513 5.3783 5.79756 5.3783H6.53113C6.60214 5.67519 6.72258 5.95882 6.88769 6.21799L6.37018 6.72147C6.35799 6.73327 6.34832 6.74723 6.34173 6.76266C6.33513 6.7781 6.33173 6.79464 6.33173 6.81135C6.33173 6.82806 6.33513 6.8446 6.34173 6.86003C6.34832 6.87546 6.35799 6.8895 6.37018 6.90129L7.11117 7.6213C7.12327 7.63331 7.13772 7.64284 7.15366 7.64935C7.16961 7.65586 7.18673 7.65919 7.20402 7.65919C7.22132 7.65919 7.23844 7.65586 7.25438 7.64935C7.27033 7.64284 7.28477 7.63331 7.29688 7.6213L7.81502 7.11724C8.08143 7.27824 8.37313 7.39587 8.67858 7.46549V8.17765C8.67858 8.24803 8.73677 8.3046 8.80919 8.3046H9.85723C9.89182 8.30444 9.92495 8.291 9.94941 8.26723C9.97387 8.24346 9.98768 8.21126 9.98785 8.17765V7.46491C10.2936 7.39597 10.5857 7.27891 10.8526 7.11841L11.3702 7.6213C11.3823 7.63331 11.3967 7.64284 11.4127 7.64935C11.4286 7.65586 11.4457 7.65919 11.463 7.65919C11.4803 7.65919 11.4974 7.65586 11.5134 7.64935C11.5293 7.64284 11.5438 7.63331 11.5559 7.6213L12.2962 6.90129C12.3085 6.88949 12.3183 6.87544 12.3249 6.85995C12.3316 6.84447 12.335 6.82783 12.335 6.81105C12.335 6.79427 12.3316 6.77764 12.3249 6.76215C12.3183 6.74666 12.3085 6.73261 12.2962 6.72081L11.7781 6.21741C11.9436 5.9585 12.0645 5.67506 12.1359 5.3783H12.8689C12.9037 5.3783 12.937 5.36484 12.9617 5.34093C12.9863 5.31701 13.0001 5.28458 13.0001 5.25076V4.23301C13.0002 4.21624 12.9968 4.19961 12.9903 4.1841C12.9837 4.1686 12.974 4.15455 12.9618 4.14269C12.9496 4.13084 12.9351 4.12147 12.9192 4.11508C12.9032 4.1087 12.8861 4.10546 12.8689 4.10554H12.1353C12.0643 3.80864 11.9438 3.52501 11.7787 3.26584L12.2962 2.76295C12.3086 2.75119 12.3184 2.73718 12.3251 2.72169C12.3318 2.70619 12.3353 2.68952 12.3353 2.67271C12.3353 2.65591 12.3318 2.6393 12.3251 2.62381C12.3184 2.60832 12.3086 2.59423 12.2962 2.58247L11.5553 1.8625C11.5432 1.85059 11.5288 1.84113 11.5129 1.83467C11.497 1.82821 11.4799 1.8249 11.4627 1.8249C11.4455 1.8249 11.4284 1.82821 11.4126 1.83467C11.3967 1.84113 11.3823 1.85059 11.3702 1.8625L10.8514 2.3666C10.585 2.20581 10.2933 2.08833 9.98785 2.01889V1.3067C9.98793 1.28999 9.98461 1.27342 9.97808 1.25795C9.97156 1.24248 9.96195 1.22842 9.94981 1.21657C9.93767 1.20472 9.92325 1.19534 9.90736 1.18893C9.89147 1.18251 9.87443 1.1792 9.85723 1.1792H8.80919ZM9.33352 2.96083C9.81961 2.96099 10.2857 3.14869 10.6295 3.48267C10.9732 3.81665 11.1663 4.2696 11.1665 4.74192C11.1665 5.21434 10.9734 5.66743 10.6297 6.00154C10.2859 6.33564 9.81971 6.52336 9.33352 6.52352C8.84722 6.52352 8.38084 6.33581 8.03697 6.00168C7.69311 5.66756 7.49992 5.21444 7.49992 4.74192C7.50009 4.2695 7.69334 3.81644 8.03719 3.48245C8.38104 3.14846 8.84733 2.96083 9.33352 2.96083Z"/>
</mask>
<path d="M5.28562 8.3046C5.26215 8.3046 5.23892 8.30908 5.21725 8.31782C5.19558 8.32656 5.17589 8.33941 5.15933 8.35556C5.14277 8.37171 5.12965 8.39086 5.12073 8.41195C5.1118 8.43304 5.10725 8.4556 5.10733 8.4784V9.45048C4.6904 9.5444 4.29206 9.70385 3.92806 9.92261L3.22235 9.23696C3.20579 9.22081 3.18611 9.20796 3.16444 9.19922C3.14277 9.19048 3.11954 9.186 3.09607 9.186C3.07261 9.186 3.04937 9.19048 3.0277 9.19922C3.00603 9.20796 2.98635 9.22081 2.96979 9.23696L1.95889 10.2186C1.94227 10.2347 1.92909 10.2538 1.92009 10.2748C1.91109 10.2959 1.90646 10.3185 1.90646 10.3413C1.90646 10.3641 1.91109 10.3867 1.92009 10.4077C1.92909 10.4288 1.94227 10.4479 1.95889 10.464L2.66646 11.1515C2.44064 11.5045 2.27566 11.8909 2.17803 12.2956H1.17828C1.131 12.2956 1.08565 12.3138 1.05222 12.3463C1.01878 12.3788 1 12.4228 1 12.4688V13.857C1 13.9533 1.07986 14.0309 1.17828 14.0309H2.17865C2.27557 14.4359 2.43992 14.8227 2.66522 15.1761L1.95951 15.8619C1.94289 15.878 1.9297 15.8971 1.92071 15.9182C1.91171 15.9392 1.90708 15.9618 1.90708 15.9846C1.90708 16.0074 1.91171 16.0299 1.92071 16.051C1.9297 16.0721 1.94289 16.0912 1.95951 16.1073L2.96979 17.0895C2.98635 17.1057 3.00603 17.1185 3.0277 17.1273C3.04937 17.136 3.07261 17.1405 3.09607 17.1405C3.11954 17.1405 3.14277 17.136 3.16444 17.1273C3.18611 17.1185 3.20579 17.1057 3.22235 17.0895L3.92992 16.402C4.29314 16.6217 4.69085 16.7821 5.10733 16.8772V17.848C5.10733 17.9443 5.18657 18.0213 5.28562 18.0213H6.71436C6.81341 18.0213 6.89265 17.9443 6.89265 17.848V16.876C7.30958 16.7821 7.70792 16.6226 8.07192 16.4038L8.77762 17.0895C8.79419 17.1057 8.81387 17.1185 8.83554 17.1273C8.85721 17.136 8.88044 17.1405 8.90391 17.1405C8.92737 17.1405 8.95061 17.136 8.97228 17.1273C8.99395 17.1185 9.01363 17.1057 9.03019 17.0895L10.0405 16.1073C10.0571 16.0912 10.0703 16.0721 10.0793 16.051C10.0883 16.0299 10.0929 16.0074 10.0929 15.9846C10.0929 15.9618 10.0883 15.9392 10.0793 15.9182C10.0703 15.8971 10.0571 15.878 10.0405 15.8619L9.33352 15.175C9.55934 14.822 9.72432 14.4356 9.82194 14.0309H10.8211C10.9201 14.0309 11 13.9527 11 13.857V12.4694C11.0001 12.4465 10.9955 12.4239 10.9865 12.4028C10.9776 12.3817 10.9644 12.3625 10.9478 12.3463C10.9311 12.3302 10.9114 12.3174 10.8896 12.3086C10.8679 12.2999 10.8446 12.2955 10.8211 12.2956H9.82133C9.72441 11.8906 9.56005 11.5037 9.33476 11.1503L10.0405 10.4646C10.0572 10.4485 10.0704 10.4294 10.0795 10.4082C10.0886 10.3871 10.0932 10.3644 10.0932 10.3416C10.0932 10.3187 10.0886 10.2961 10.0795 10.275C10.0704 10.2539 10.0572 10.2347 10.0405 10.2186L9.03019 9.23696C9.01363 9.22081 8.99395 9.20796 8.97228 9.19922C8.95061 9.19048 8.92737 9.186 8.90391 9.186C8.88044 9.186 8.85721 9.19048 8.83554 9.19922C8.81387 9.20796 8.79419 9.22081 8.77762 9.23696L8.07006 9.92386C7.7068 9.70443 7.30909 9.54409 6.89265 9.44923V8.4784C6.89273 8.4556 6.88818 8.43304 6.87925 8.41195C6.87033 8.39086 6.85721 8.37171 6.84065 8.35556C6.82408 8.33941 6.8044 8.32656 6.78273 8.31782C6.76106 8.30908 6.73783 8.3046 6.71436 8.3046H5.28562ZM5.99999 10.734C6.66295 10.734 7.29875 10.99 7.76753 11.4455C8.23631 11.901 8.49967 12.5188 8.49967 13.163C8.49976 13.482 8.43516 13.7978 8.30957 14.0926C8.18399 14.3873 7.99988 14.6552 7.76775 14.8808C7.53563 15.1064 7.26004 15.2853 6.95672 15.4074C6.6534 15.5295 6.3283 15.5924 5.99999 15.5924C5.67162 15.5925 5.34646 15.5297 5.04307 15.4076C4.73968 15.2856 4.46402 15.1067 4.23183 14.881C3.99963 14.6554 3.81547 14.3875 3.68984 14.0927C3.56422 13.7979 3.4996 13.482 3.49969 13.163C3.49968 12.8439 3.56436 12.528 3.69002 12.2333C3.81568 11.9386 3.99986 11.6708 4.23204 11.4452C4.46423 11.2197 4.73986 11.0408 5.04321 10.9188C5.34656 10.7967 5.67167 10.734 5.99999 10.734ZM12.5637 7.38972C12.5492 7.39335 12.5357 7.39976 12.5238 7.40852C12.5119 7.41728 12.5019 7.42822 12.4945 7.44075C12.487 7.45328 12.4821 7.46713 12.4802 7.4815C12.4783 7.49587 12.4793 7.51047 12.4832 7.52446L12.6472 8.11876C12.4082 8.24277 12.1915 8.40387 12.0059 8.59574L11.4587 8.28896C11.4459 8.28146 11.4317 8.27656 11.4169 8.2745C11.4021 8.27244 11.3871 8.27329 11.3727 8.27699C11.3582 8.2807 11.3447 8.28713 11.3329 8.29601C11.3211 8.30489 11.3112 8.31604 11.3039 8.32869L10.8514 9.09077C10.8439 9.10327 10.839 9.1171 10.837 9.13145C10.835 9.1458 10.836 9.16034 10.8398 9.17433C10.8437 9.18831 10.8504 9.20141 10.8595 9.21288C10.8686 9.22434 10.8799 9.23398 10.8929 9.24115L11.4414 9.54851C11.3629 9.80046 11.3274 10.0631 11.3361 10.3262L10.7245 10.4856C10.7101 10.4893 10.6966 10.4956 10.6848 10.5044C10.673 10.5131 10.663 10.524 10.6556 10.5364C10.6481 10.5489 10.6432 10.5627 10.6412 10.577C10.6393 10.5913 10.6402 10.6058 10.644 10.6198L10.8786 11.4691C10.8824 11.4831 10.8889 11.4962 10.8979 11.5076C10.9069 11.5191 10.9181 11.5288 10.9309 11.5361C10.9438 11.5433 10.9579 11.5481 10.9727 11.55C10.9874 11.5519 11.0023 11.551 11.0167 11.5473L11.6289 11.3873C11.7565 11.6198 11.9223 11.8305 12.1198 12.0111L11.8035 12.5428C11.796 12.5553 11.7911 12.5691 11.7891 12.5835C11.7871 12.5978 11.7881 12.6124 11.7919 12.6264C11.7958 12.6403 11.8025 12.6534 11.8116 12.6649C11.8207 12.6764 11.832 12.686 11.845 12.6932L12.6287 13.1323C12.6831 13.1635 12.7519 13.1443 12.7834 13.0925L13.0998 12.5596C13.3591 12.6358 13.6294 12.6704 13.9002 12.6619L14.0642 13.2561C14.068 13.2702 14.0745 13.2834 14.0835 13.2949C14.0926 13.3064 14.1038 13.3161 14.1167 13.3234C14.1296 13.3307 14.1439 13.3354 14.1587 13.3373C14.1735 13.3391 14.1885 13.3381 14.2029 13.3343L15.0764 13.1064C15.0908 13.1028 15.1043 13.0964 15.1162 13.0876C15.1281 13.0789 15.1381 13.0679 15.1456 13.0554C15.1531 13.0429 15.1579 13.029 15.1598 13.0146C15.1618 13.0003 15.1608 12.9857 15.1568 12.9717L14.9928 12.3774C15.2319 12.2534 15.4485 12.0923 15.6341 11.9004L16.182 12.2072C16.1948 12.2145 16.209 12.2193 16.2237 12.2213C16.2385 12.2232 16.2535 12.2223 16.2679 12.2186C16.2823 12.2149 16.2957 12.2085 16.3076 12.1998C16.3194 12.191 16.3293 12.18 16.3367 12.1674L16.7886 11.4054C16.7961 11.3929 16.801 11.379 16.803 11.3647C16.805 11.3503 16.804 11.3357 16.8002 11.3217C16.7963 11.3077 16.7897 11.2946 16.7806 11.2832C16.7714 11.2717 16.7601 11.2622 16.7471 11.255L16.1987 10.9482C16.2772 10.6961 16.3127 10.4331 16.3039 10.1698L16.9161 10.0111C16.9305 10.0074 16.944 10.0009 16.9558 9.99214C16.9676 9.98335 16.9775 9.97236 16.985 9.95984C16.9924 9.94731 16.9972 9.9335 16.9991 9.91916C17.001 9.90482 16.9999 9.89029 16.996 9.87635L16.762 9.02704C16.7583 9.01301 16.7517 8.99981 16.7427 8.98827C16.7337 8.97672 16.7224 8.96705 16.7095 8.95978C16.6966 8.9525 16.6823 8.94778 16.6675 8.9459C16.6528 8.94402 16.6377 8.94503 16.6233 8.94884L16.0111 9.10883C15.8837 8.87657 15.7181 8.66608 15.5208 8.48567L15.8365 7.95333C15.8441 7.94087 15.849 7.92706 15.8511 7.91273C15.8531 7.8984 15.8522 7.88383 15.8484 7.86985C15.8446 7.85587 15.838 7.84279 15.8289 7.8313C15.8199 7.81982 15.8086 7.81018 15.7957 7.80296L15.0114 7.36387C14.9986 7.35638 14.9844 7.3514 14.9696 7.34934C14.9548 7.34727 14.9398 7.34813 14.9253 7.35183C14.9109 7.35554 14.8974 7.36204 14.8856 7.37092C14.8738 7.3798 14.8639 7.39087 14.8566 7.40352L14.5403 7.93711C14.281 7.86071 14.0106 7.82596 13.7399 7.83424L13.5758 7.23993C13.5721 7.22597 13.5655 7.21288 13.5565 7.20138C13.5476 7.18989 13.5363 7.18023 13.5235 7.17297C13.5107 7.1657 13.4965 7.16094 13.4818 7.15902C13.4671 7.15709 13.4521 7.15802 13.4378 7.16173L12.5637 7.38972ZM13.4105 8.76234C13.816 8.65687 14.2481 8.71216 14.6116 8.91609C14.9752 9.12002 15.2405 9.45588 15.3494 9.84984C15.4581 10.244 15.4013 10.6639 15.1914 11.0173C14.9815 11.3707 14.6357 11.6287 14.2301 11.7344C14.0293 11.7867 13.8197 11.8 13.6136 11.7737C13.4074 11.7473 13.2086 11.6817 13.0285 11.5806C12.8484 11.4796 12.6905 11.345 12.5639 11.1847C12.4373 11.0244 12.3445 10.8414 12.2907 10.6462C12.1822 10.2521 12.2392 9.83225 12.4492 9.47897C12.6592 9.12569 13.005 8.86793 13.4105 8.76234ZM8.80919 1.1792C8.77449 1.17936 8.74127 1.19286 8.7168 1.21676C8.69232 1.24065 8.67858 1.27299 8.67858 1.3067V2.01948C8.37281 2.08842 8.08069 2.20545 7.81378 2.36594L7.29626 1.8625C7.28417 1.85059 7.26976 1.84113 7.25387 1.83467C7.23798 1.82821 7.22093 1.8249 7.20371 1.8249C7.18649 1.8249 7.16944 1.82821 7.15356 1.83467C7.13767 1.84113 7.12326 1.85059 7.11117 1.8625L6.37018 2.58313C6.35792 2.59488 6.34818 2.60889 6.34154 2.62433C6.33489 2.63976 6.33147 2.65627 6.33147 2.67301C6.33147 2.68974 6.33489 2.70632 6.34154 2.72176C6.34818 2.7372 6.35792 2.7512 6.37018 2.76295L6.88893 3.26702C6.72329 3.5257 6.60223 3.80895 6.53051 4.10554H5.79756C5.78028 4.10538 5.76314 4.10851 5.74715 4.11486C5.73115 4.12122 5.71662 4.1306 5.7044 4.14247C5.69218 4.15435 5.68252 4.16849 5.67598 4.18403C5.66944 4.19958 5.66616 4.21622 5.66633 4.23301V5.25076C5.66633 5.32174 5.72513 5.3783 5.79756 5.3783H6.53113C6.60214 5.67519 6.72258 5.95882 6.88769 6.21799L6.37018 6.72147C6.35799 6.73327 6.34832 6.74723 6.34173 6.76266C6.33513 6.7781 6.33173 6.79464 6.33173 6.81135C6.33173 6.82806 6.33513 6.8446 6.34173 6.86003C6.34832 6.87546 6.35799 6.8895 6.37018 6.90129L7.11117 7.6213C7.12327 7.63331 7.13772 7.64284 7.15366 7.64935C7.16961 7.65586 7.18673 7.65919 7.20402 7.65919C7.22132 7.65919 7.23844 7.65586 7.25438 7.64935C7.27033 7.64284 7.28477 7.63331 7.29688 7.6213L7.81502 7.11724C8.08143 7.27824 8.37313 7.39587 8.67858 7.46549V8.17765C8.67858 8.24803 8.73677 8.3046 8.80919 8.3046H9.85723C9.89182 8.30444 9.92495 8.291 9.94941 8.26723C9.97387 8.24346 9.98768 8.21126 9.98785 8.17765V7.46491C10.2936 7.39597 10.5857 7.27891 10.8526 7.11841L11.3702 7.6213C11.3823 7.63331 11.3967 7.64284 11.4127 7.64935C11.4286 7.65586 11.4457 7.65919 11.463 7.65919C11.4803 7.65919 11.4974 7.65586 11.5134 7.64935C11.5293 7.64284 11.5438 7.63331 11.5559 7.6213L12.2962 6.90129C12.3085 6.88949 12.3183 6.87544 12.3249 6.85995C12.3316 6.84447 12.335 6.82783 12.335 6.81105C12.335 6.79427 12.3316 6.77764 12.3249 6.76215C12.3183 6.74666 12.3085 6.73261 12.2962 6.72081L11.7781 6.21741C11.9436 5.9585 12.0645 5.67506 12.1359 5.3783H12.8689C12.9037 5.3783 12.937 5.36484 12.9617 5.34093C12.9863 5.31701 13.0001 5.28458 13.0001 5.25076V4.23301C13.0002 4.21624 12.9968 4.19961 12.9903 4.1841C12.9837 4.1686 12.974 4.15455 12.9618 4.14269C12.9496 4.13084 12.9351 4.12147 12.9192 4.11508C12.9032 4.1087 12.8861 4.10546 12.8689 4.10554H12.1353C12.0643 3.80864 11.9438 3.52501 11.7787 3.26584L12.2962 2.76295C12.3086 2.75119 12.3184 2.73718 12.3251 2.72169C12.3318 2.70619 12.3353 2.68952 12.3353 2.67271C12.3353 2.65591 12.3318 2.6393 12.3251 2.62381C12.3184 2.60832 12.3086 2.59423 12.2962 2.58247L11.5553 1.8625C11.5432 1.85059 11.5288 1.84113 11.5129 1.83467C11.497 1.82821 11.4799 1.8249 11.4627 1.8249C11.4455 1.8249 11.4284 1.82821 11.4126 1.83467C11.3967 1.84113 11.3823 1.85059 11.3702 1.8625L10.8514 2.3666C10.585 2.20581 10.2933 2.08833 9.98785 2.01889V1.3067C9.98793 1.28999 9.98461 1.27342 9.97808 1.25795C9.97156 1.24248 9.96195 1.22842 9.94981 1.21657C9.93767 1.20472 9.92325 1.19534 9.90736 1.18893C9.89147 1.18251 9.87443 1.1792 9.85723 1.1792H8.80919ZM9.33352 2.96083C9.81961 2.96099 10.2857 3.14869 10.6295 3.48267C10.9732 3.81665 11.1663 4.2696 11.1665 4.74192C11.1665 5.21434 10.9734 5.66743 10.6297 6.00154C10.2859 6.33564 9.81971 6.52336 9.33352 6.52352C8.84722 6.52352 8.38084 6.33581 8.03697 6.00168C7.69311 5.66756 7.49992 5.21444 7.49992 4.74192C7.50009 4.2695 7.69334 3.81644 8.03719 3.48245C8.38104 3.14846 8.84733 2.96083 9.33352 2.96083Z" fill="black"/>
<path d="M5.28562 8.3046C5.26215 8.3046 5.23892 8.30908 5.21725 8.31782C5.19558 8.32656 5.17589 8.33941 5.15933 8.35556C5.14277 8.37171 5.12965 8.39086 5.12073 8.41195C5.1118 8.43304 5.10725 8.4556 5.10733 8.4784V9.45048C4.6904 9.5444 4.29206 9.70385 3.92806 9.92261L3.22235 9.23696C3.20579 9.22081 3.18611 9.20796 3.16444 9.19922C3.14277 9.19048 3.11954 9.186 3.09607 9.186C3.07261 9.186 3.04937 9.19048 3.0277 9.19922C3.00603 9.20796 2.98635 9.22081 2.96979 9.23696L1.95889 10.2186C1.94227 10.2347 1.92909 10.2538 1.92009 10.2748C1.91109 10.2959 1.90646 10.3185 1.90646 10.3413C1.90646 10.3641 1.91109 10.3867 1.92009 10.4077C1.92909 10.4288 1.94227 10.4479 1.95889 10.464L2.66646 11.1515C2.44064 11.5045 2.27566 11.8909 2.17803 12.2956H1.17828C1.131 12.2956 1.08565 12.3138 1.05222 12.3463C1.01878 12.3788 1 12.4228 1 12.4688V13.857C1 13.9533 1.07986 14.0309 1.17828 14.0309H2.17865C2.27557 14.4359 2.43992 14.8227 2.66522 15.1761L1.95951 15.8619C1.94289 15.878 1.9297 15.8971 1.92071 15.9182C1.91171 15.9392 1.90708 15.9618 1.90708 15.9846C1.90708 16.0074 1.91171 16.0299 1.92071 16.051C1.9297 16.0721 1.94289 16.0912 1.95951 16.1073L2.96979 17.0895C2.98635 17.1057 3.00603 17.1185 3.0277 17.1273C3.04937 17.136 3.07261 17.1405 3.09607 17.1405C3.11954 17.1405 3.14277 17.136 3.16444 17.1273C3.18611 17.1185 3.20579 17.1057 3.22235 17.0895L3.92992 16.402C4.29314 16.6217 4.69085 16.7821 5.10733 16.8772V17.848C5.10733 17.9443 5.18657 18.0213 5.28562 18.0213H6.71436C6.81341 18.0213 6.89265 17.9443 6.89265 17.848V16.876C7.30958 16.7821 7.70792 16.6226 8.07192 16.4038L8.77762 17.0895C8.79419 17.1057 8.81387 17.1185 8.83554 17.1273C8.85721 17.136 8.88044 17.1405 8.90391 17.1405C8.92737 17.1405 8.95061 17.136 8.97228 17.1273C8.99395 17.1185 9.01363 17.1057 9.03019 17.0895L10.0405 16.1073C10.0571 16.0912 10.0703 16.0721 10.0793 16.051C10.0883 16.0299 10.0929 16.0074 10.0929 15.9846C10.0929 15.9618 10.0883 15.9392 10.0793 15.9182C10.0703 15.8971 10.0571 15.878 10.0405 15.8619L9.33352 15.175C9.55934 14.822 9.72432 14.4356 9.82194 14.0309H10.8211C10.9201 14.0309 11 13.9527 11 13.857V12.4694C11.0001 12.4465 10.9955 12.4239 10.9865 12.4028C10.9776 12.3817 10.9644 12.3625 10.9478 12.3463C10.9311 12.3302 10.9114 12.3174 10.8896 12.3086C10.8679 12.2999 10.8446 12.2955 10.8211 12.2956H9.82133C9.72441 11.8906 9.56005 11.5037 9.33476 11.1503L10.0405 10.4646C10.0572 10.4485 10.0704 10.4294 10.0795 10.4082C10.0886 10.3871 10.0932 10.3644 10.0932 10.3416C10.0932 10.3187 10.0886 10.2961 10.0795 10.275C10.0704 10.2539 10.0572 10.2347 10.0405 10.2186L9.03019 9.23696C9.01363 9.22081 8.99395 9.20796 8.97228 9.19922C8.95061 9.19048 8.92737 9.186 8.90391 9.186C8.88044 9.186 8.85721 9.19048 8.83554 9.19922C8.81387 9.20796 8.79419 9.22081 8.77762 9.23696L8.07006 9.92386C7.7068 9.70443 7.30909 9.54409 6.89265 9.44923V8.4784C6.89273 8.4556 6.88818 8.43304 6.87925 8.41195C6.87033 8.39086 6.85721 8.37171 6.84065 8.35556C6.82408 8.33941 6.8044 8.32656 6.78273 8.31782C6.76106 8.30908 6.73783 8.3046 6.71436 8.3046H5.28562ZM5.99999 10.734C6.66295 10.734 7.29875 10.99 7.76753 11.4455C8.23631 11.901 8.49967 12.5188 8.49967 13.163C8.49976 13.482 8.43516 13.7978 8.30957 14.0926C8.18399 14.3873 7.99988 14.6552 7.76775 14.8808C7.53563 15.1064 7.26004 15.2853 6.95672 15.4074C6.6534 15.5295 6.3283 15.5924 5.99999 15.5924C5.67162 15.5925 5.34646 15.5297 5.04307 15.4076C4.73968 15.2856 4.46402 15.1067 4.23183 14.881C3.99963 14.6554 3.81547 14.3875 3.68984 14.0927C3.56422 13.7979 3.4996 13.482 3.49969 13.163C3.49968 12.8439 3.56436 12.528 3.69002 12.2333C3.81568 11.9386 3.99986 11.6708 4.23204 11.4452C4.46423 11.2197 4.73986 11.0408 5.04321 10.9188C5.34656 10.7967 5.67167 10.734 5.99999 10.734ZM12.5637 7.38972C12.5492 7.39335 12.5357 7.39976 12.5238 7.40852C12.5119 7.41728 12.5019 7.42822 12.4945 7.44075C12.487 7.45328 12.4821 7.46713 12.4802 7.4815C12.4783 7.49587 12.4793 7.51047 12.4832 7.52446L12.6472 8.11876C12.4082 8.24277 12.1915 8.40387 12.0059 8.59574L11.4587 8.28896C11.4459 8.28146 11.4317 8.27656 11.4169 8.2745C11.4021 8.27244 11.3871 8.27329 11.3727 8.27699C11.3582 8.2807 11.3447 8.28713 11.3329 8.29601C11.3211 8.30489 11.3112 8.31604 11.3039 8.32869L10.8514 9.09077C10.8439 9.10327 10.839 9.1171 10.837 9.13145C10.835 9.1458 10.836 9.16034 10.8398 9.17433C10.8437 9.18831 10.8504 9.20141 10.8595 9.21288C10.8686 9.22434 10.8799 9.23398 10.8929 9.24115L11.4414 9.54851C11.3629 9.80046 11.3274 10.0631 11.3361 10.3262L10.7245 10.4856C10.7101 10.4893 10.6966 10.4956 10.6848 10.5044C10.673 10.5131 10.663 10.524 10.6556 10.5364C10.6481 10.5489 10.6432 10.5627 10.6412 10.577C10.6393 10.5913 10.6402 10.6058 10.644 10.6198L10.8786 11.4691C10.8824 11.4831 10.8889 11.4962 10.8979 11.5076C10.9069 11.5191 10.9181 11.5288 10.9309 11.5361C10.9438 11.5433 10.9579 11.5481 10.9727 11.55C10.9874 11.5519 11.0023 11.551 11.0167 11.5473L11.6289 11.3873C11.7565 11.6198 11.9223 11.8305 12.1198 12.0111L11.8035 12.5428C11.796 12.5553 11.7911 12.5691 11.7891 12.5835C11.7871 12.5978 11.7881 12.6124 11.7919 12.6264C11.7958 12.6403 11.8025 12.6534 11.8116 12.6649C11.8207 12.6764 11.832 12.686 11.845 12.6932L12.6287 13.1323C12.6831 13.1635 12.7519 13.1443 12.7834 13.0925L13.0998 12.5596C13.3591 12.6358 13.6294 12.6704 13.9002 12.6619L14.0642 13.2561C14.068 13.2702 14.0745 13.2834 14.0835 13.2949C14.0926 13.3064 14.1038 13.3161 14.1167 13.3234C14.1296 13.3307 14.1439 13.3354 14.1587 13.3373C14.1735 13.3391 14.1885 13.3381 14.2029 13.3343L15.0764 13.1064C15.0908 13.1028 15.1043 13.0964 15.1162 13.0876C15.1281 13.0789 15.1381 13.0679 15.1456 13.0554C15.1531 13.0429 15.1579 13.029 15.1598 13.0146C15.1618 13.0003 15.1608 12.9857 15.1568 12.9717L14.9928 12.3774C15.2319 12.2534 15.4485 12.0923 15.6341 11.9004L16.182 12.2072C16.1948 12.2145 16.209 12.2193 16.2237 12.2213C16.2385 12.2232 16.2535 12.2223 16.2679 12.2186C16.2823 12.2149 16.2957 12.2085 16.3076 12.1998C16.3194 12.191 16.3293 12.18 16.3367 12.1674L16.7886 11.4054C16.7961 11.3929 16.801 11.379 16.803 11.3647C16.805 11.3503 16.804 11.3357 16.8002 11.3217C16.7963 11.3077 16.7897 11.2946 16.7806 11.2832C16.7714 11.2717 16.7601 11.2622 16.7471 11.255L16.1987 10.9482C16.2772 10.6961 16.3127 10.4331 16.3039 10.1698L16.9161 10.0111C16.9305 10.0074 16.944 10.0009 16.9558 9.99214C16.9676 9.98335 16.9775 9.97236 16.985 9.95984C16.9924 9.94731 16.9972 9.9335 16.9991 9.91916C17.001 9.90482 16.9999 9.89029 16.996 9.87635L16.762 9.02704C16.7583 9.01301 16.7517 8.99981 16.7427 8.98827C16.7337 8.97672 16.7224 8.96705 16.7095 8.95978C16.6966 8.9525 16.6823 8.94778 16.6675 8.9459C16.6528 8.94402 16.6377 8.94503 16.6233 8.94884L16.0111 9.10883C15.8837 8.87657 15.7181 8.66608 15.5208 8.48567L15.8365 7.95333C15.8441 7.94087 15.849 7.92706 15.8511 7.91273C15.8531 7.8984 15.8522 7.88383 15.8484 7.86985C15.8446 7.85587 15.838 7.84279 15.8289 7.8313C15.8199 7.81982 15.8086 7.81018 15.7957 7.80296L15.0114 7.36387C14.9986 7.35638 14.9844 7.3514 14.9696 7.34934C14.9548 7.34727 14.9398 7.34813 14.9253 7.35183C14.9109 7.35554 14.8974 7.36204 14.8856 7.37092C14.8738 7.3798 14.8639 7.39087 14.8566 7.40352L14.5403 7.93711C14.281 7.86071 14.0106 7.82596 13.7399 7.83424L13.5758 7.23993C13.5721 7.22597 13.5655 7.21288 13.5565 7.20138C13.5476 7.18989 13.5363 7.18023 13.5235 7.17297C13.5107 7.1657 13.4965 7.16094 13.4818 7.15902C13.4671 7.15709 13.4521 7.15802 13.4378 7.16173L12.5637 7.38972ZM13.4105 8.76234C13.816 8.65687 14.2481 8.71216 14.6116 8.91609C14.9752 9.12002 15.2405 9.45588 15.3494 9.84984C15.4581 10.244 15.4013 10.6639 15.1914 11.0173C14.9815 11.3707 14.6357 11.6287 14.2301 11.7344C14.0293 11.7867 13.8197 11.8 13.6136 11.7737C13.4074 11.7473 13.2086 11.6817 13.0285 11.5806C12.8484 11.4796 12.6905 11.345 12.5639 11.1847C12.4373 11.0244 12.3445 10.8414 12.2907 10.6462C12.1822 10.2521 12.2392 9.83225 12.4492 9.47897C12.6592 9.12569 13.005 8.86793 13.4105 8.76234ZM8.80919 1.1792C8.77449 1.17936 8.74127 1.19286 8.7168 1.21676C8.69232 1.24065 8.67858 1.27299 8.67858 1.3067V2.01948C8.37281 2.08842 8.08069 2.20545 7.81378 2.36594L7.29626 1.8625C7.28417 1.85059 7.26976 1.84113 7.25387 1.83467C7.23798 1.82821 7.22093 1.8249 7.20371 1.8249C7.18649 1.8249 7.16944 1.82821 7.15356 1.83467C7.13767 1.84113 7.12326 1.85059 7.11117 1.8625L6.37018 2.58313C6.35792 2.59488 6.34818 2.60889 6.34154 2.62433C6.33489 2.63976 6.33147 2.65627 6.33147 2.67301C6.33147 2.68974 6.33489 2.70632 6.34154 2.72176C6.34818 2.7372 6.35792 2.7512 6.37018 2.76295L6.88893 3.26702C6.72329 3.5257 6.60223 3.80895 6.53051 4.10554H5.79756C5.78028 4.10538 5.76314 4.10851 5.74715 4.11486C5.73115 4.12122 5.71662 4.1306 5.7044 4.14247C5.69218 4.15435 5.68252 4.16849 5.67598 4.18403C5.66944 4.19958 5.66616 4.21622 5.66633 4.23301V5.25076C5.66633 5.32174 5.72513 5.3783 5.79756 5.3783H6.53113C6.60214 5.67519 6.72258 5.95882 6.88769 6.21799L6.37018 6.72147C6.35799 6.73327 6.34832 6.74723 6.34173 6.76266C6.33513 6.7781 6.33173 6.79464 6.33173 6.81135C6.33173 6.82806 6.33513 6.8446 6.34173 6.86003C6.34832 6.87546 6.35799 6.8895 6.37018 6.90129L7.11117 7.6213C7.12327 7.63331 7.13772 7.64284 7.15366 7.64935C7.16961 7.65586 7.18673 7.65919 7.20402 7.65919C7.22132 7.65919 7.23844 7.65586 7.25438 7.64935C7.27033 7.64284 7.28477 7.63331 7.29688 7.6213L7.81502 7.11724C8.08143 7.27824 8.37313 7.39587 8.67858 7.46549V8.17765C8.67858 8.24803 8.73677 8.3046 8.80919 8.3046H9.85723C9.89182 8.30444 9.92495 8.291 9.94941 8.26723C9.97387 8.24346 9.98768 8.21126 9.98785 8.17765V7.46491C10.2936 7.39597 10.5857 7.27891 10.8526 7.11841L11.3702 7.6213C11.3823 7.63331 11.3967 7.64284 11.4127 7.64935C11.4286 7.65586 11.4457 7.65919 11.463 7.65919C11.4803 7.65919 11.4974 7.65586 11.5134 7.64935C11.5293 7.64284 11.5438 7.63331 11.5559 7.6213L12.2962 6.90129C12.3085 6.88949 12.3183 6.87544 12.3249 6.85995C12.3316 6.84447 12.335 6.82783 12.335 6.81105C12.335 6.79427 12.3316 6.77764 12.3249 6.76215C12.3183 6.74666 12.3085 6.73261 12.2962 6.72081L11.7781 6.21741C11.9436 5.9585 12.0645 5.67506 12.1359 5.3783H12.8689C12.9037 5.3783 12.937 5.36484 12.9617 5.34093C12.9863 5.31701 13.0001 5.28458 13.0001 5.25076V4.23301C13.0002 4.21624 12.9968 4.19961 12.9903 4.1841C12.9837 4.1686 12.974 4.15455 12.9618 4.14269C12.9496 4.13084 12.9351 4.12147 12.9192 4.11508C12.9032 4.1087 12.8861 4.10546 12.8689 4.10554H12.1353C12.0643 3.80864 11.9438 3.52501 11.7787 3.26584L12.2962 2.76295C12.3086 2.75119 12.3184 2.73718 12.3251 2.72169C12.3318 2.70619 12.3353 2.68952 12.3353 2.67271C12.3353 2.65591 12.3318 2.6393 12.3251 2.62381C12.3184 2.60832 12.3086 2.59423 12.2962 2.58247L11.5553 1.8625C11.5432 1.85059 11.5288 1.84113 11.5129 1.83467C11.497 1.82821 11.4799 1.8249 11.4627 1.8249C11.4455 1.8249 11.4284 1.82821 11.4126 1.83467C11.3967 1.84113 11.3823 1.85059 11.3702 1.8625L10.8514 2.3666C10.585 2.20581 10.2933 2.08833 9.98785 2.01889V1.3067C9.98793 1.28999 9.98461 1.27342 9.97808 1.25795C9.97156 1.24248 9.96195 1.22842 9.94981 1.21657C9.93767 1.20472 9.92325 1.19534 9.90736 1.18893C9.89147 1.18251 9.87443 1.1792 9.85723 1.1792H8.80919ZM9.33352 2.96083C9.81961 2.96099 10.2857 3.14869 10.6295 3.48267C10.9732 3.81665 11.1663 4.2696 11.1665 4.74192C11.1665 5.21434 10.9734 5.66743 10.6297 6.00154C10.2859 6.33564 9.81971 6.52336 9.33352 6.52352C8.84722 6.52352 8.38084 6.33581 8.03697 6.00168C7.69311 5.66756 7.49992 5.21444 7.49992 4.74192C7.50009 4.2695 7.69334 3.81644 8.03719 3.48245C8.38104 3.14846 8.84733 2.96083 9.33352 2.96083Z" stroke="black" stroke-width="0.5" mask="url(#path-1-outside-1_448_2244)"/>
</svg>
