<svg width="18" height="10" viewBox="0 0 18 10" fill="none" xmlns="http://www.w3.org/2000/svg">
<path d="M15.4576 1.23674L15.4576 1.23673C15.8677 0.826688 16.5324 0.826688 16.9425 1.23673C17.3525 1.64678 17.3525 2.31162 16.9425 2.72166L11.9019 7.76217L11.9018 7.76228L11.8959 7.76819C11.7268 7.93746 11.5317 8.13287 11.3419 8.27598L11.3418 8.27603C11.1162 8.44609 10.76 8.65137 10.2851 8.62179L15.4576 1.23674ZM15.4576 1.23674L10.4453 6.24904C10.4408 6.25354 10.4364 6.25798 10.432 6.26238M15.4576 1.23674L10.432 6.26238M10.432 6.26238C10.4282 6.25748 10.4243 6.25252 10.4204 6.24751L10.4204 6.24748L8.18579 3.3744L8.18573 3.37432L8.17926 3.36601C8.02524 3.16781 7.84936 2.94148 7.67286 2.77095C7.46415 2.56919 7.1217 2.31169 6.62701 2.29392L6.62701 2.29392C6.13233 2.27617 5.77236 2.50844 5.54971 2.6947C5.5497 2.69471 5.54969 2.69472 5.54968 2.69473L5.71009 2.88647M10.432 6.26238L4.99486 3.25976L5.18068 3.427M5.71009 2.88647C5.53558 3.03241 5.35365 3.23468 5.18068 3.427M5.71009 2.88647C5.91094 2.71844 6.21175 2.52918 6.61804 2.54376L5.71009 2.88647ZM5.18068 3.427L4.9948 3.25982L8.78725 7.56833L6.5535 4.69642L6.55342 4.69632C6.54934 4.69106 6.54529 4.68585 6.54129 4.6807C6.53694 4.68554 6.53253 4.69044 6.52809 4.69538L6.52802 4.69546L2.58047 9.08159C2.19256 9.51263 1.52865 9.54765 1.0976 9.1597C1.0976 9.1597 1.0976 9.1597 1.09759 9.15969L1.26484 8.97387M5.18068 3.427L1.20537 7.84406C0.909808 8.17249 0.936422 8.6783 1.26484 8.97387M1.26484 8.97387C1.59324 9.26945 2.09908 9.24278 2.39464 8.91435L1.26484 8.97387Z" fill="black" stroke="black" stroke-width="0.5"/>
</svg>
