<svg width="18" height="16" viewBox="0 0 18 16" fill="none" xmlns="http://www.w3.org/2000/svg">
<path d="M13.7363 7.21184C14.8373 7.05715 15.6849 6.11325 15.6873 4.96967C15.6873 3.84266 14.8657 2.90823 13.7884 2.73145" stroke="black" stroke-width="2" stroke-linecap="round" stroke-linejoin="round"/>
<path d="M15.1895 9.8584C16.2557 10.0178 16.9999 10.3911 16.9999 11.1606C16.9999 11.6902 16.6495 12.0343 16.0828 12.2505" stroke="black" stroke-width="2" stroke-linecap="round" stroke-linejoin="round"/>
<path fill-rule="evenodd" clip-rule="evenodd" d="M8.99983 10.1851C6.46328 10.1851 4.29688 10.5694 4.29688 12.1044C4.29688 13.6387 6.44986 14.0341 8.99983 14.0341C11.5364 14.0341 13.702 13.6537 13.702 12.1179C13.702 10.582 11.5498 10.1851 8.99983 10.1851Z" stroke="black" stroke-width="2" stroke-linecap="round" stroke-linejoin="round"/>
<path fill-rule="evenodd" clip-rule="evenodd" d="M9.00037 7.99387C10.6648 7.99387 12.0144 6.6451 12.0144 4.97984C12.0144 3.31538 10.6648 1.96582 9.00037 1.96582C7.33591 1.96582 5.98635 3.31538 5.98635 4.97984C5.98004 6.63878 7.31934 7.98834 8.97828 7.99387H9.00037Z" stroke="black" stroke-width="2" stroke-linecap="round" stroke-linejoin="round"/>
<path d="M4.26345 7.21184C3.1617 7.05715 2.31487 6.11325 2.3125 4.96967C2.3125 3.84266 3.13408 2.90823 4.21136 2.73145" stroke="black" stroke-width="2" stroke-linecap="round" stroke-linejoin="round"/>
<path d="M2.81047 9.8584C1.74423 10.0178 1 10.3911 1 11.1606C1 11.6902 1.35041 12.0343 1.91707 12.2505" stroke="black" stroke-width="2" stroke-linecap="round" stroke-linejoin="round"/>
</svg>
