<svg width="31" height="19" viewBox="0 0 31 19" fill="none" xmlns="http://www.w3.org/2000/svg">
<path d="M15.5833 18.5C23.6377 18.5 30.1667 9.75 30.1667 9.75C30.1667 9.75 23.6377 1 15.5833 1C7.52896 1 1 9.75 1 9.75C1 9.75 7.52896 18.5 15.5833 18.5Z" stroke="black" stroke-linejoin="round"/>
<path d="M15.5833 13.3959C16.5503 13.3959 17.4776 13.0118 18.1613 12.3281C18.8451 11.6443 19.2292 10.717 19.2292 9.75008C19.2292 8.78315 18.8451 7.85581 18.1613 7.17209C17.4776 6.48836 16.5503 6.10425 15.5833 6.10425C14.6164 6.10425 13.6891 6.48836 13.0053 7.17209C12.3216 7.85581 11.9375 8.78315 11.9375 9.75008C11.9375 10.717 12.3216 11.6443 13.0053 12.3281C13.6891 13.0118 14.6164 13.3959 15.5833 13.3959Z" stroke="black" stroke-linejoin="round"/>
</svg>
