<svg width="20" height="20" viewBox="0 0 20 20" fill="none" xmlns="http://www.w3.org/2000/svg">
<path d="M15.8106 0.715864L10.0006 6.52618C8.06409 4.59024 6.1269 2.65243 4.19003 0.715864C1.9494 -1.52476 -1.52372 1.94961 0.715026 4.19086C2.65221 6.12618 4.59003 8.0643 6.52503 10.0009C4.58914 11.9383 2.65247 13.875 0.715026 15.8109C-1.52372 18.0509 1.94971 21.5243 4.19003 19.2859C6.12659 17.3487 8.06377 15.4112 10.0003 13.4752L15.8103 19.2859C18.051 21.5259 21.525 18.0512 19.2853 15.8109C17.3481 13.8737 15.4116 11.9371 13.4738 10.0002C15.4113 8.06305 17.3478 6.12586 19.2853 4.18899C21.5253 1.94961 18.0513 -1.52476 15.8103 0.717114" fill="#EC1C24"/>
</svg>
