<svg width="26" height="15" viewBox="0 0 26 15" fill="none" xmlns="http://www.w3.org/2000/svg">
<path d="M23 7C22.6995 7.00215 22.4018 7.05846 22.1213 7.16625L19.1238 4.7125C19.1975 4.445 19.25 4.1675 19.25 3.875C19.25 2.1425 17.8575 0.75 16.125 0.75C14.3925 0.75 13 2.1425 13 3.875C13 4.37 13.125 4.83125 13.3275 5.24625L9.69125 9.54375C9.5457 9.51651 9.39807 9.50187 9.25 9.5C9.02625 9.5 8.815 9.5375 8.61 9.5925L5.40625 6.38875C5.4625 6.185 5.5 5.97375 5.5 5.75C5.5 4.365 4.385 3.25 3 3.25C1.615 3.25 0.5 4.365 0.5 5.75C0.5 7.135 1.615 8.25 3 8.25C3.22375 8.25 3.435 8.2125 3.64 8.1575L6.84375 11.3612C6.78366 11.5689 6.75212 11.7838 6.75 12C6.75 13.385 7.865 14.5 9.25 14.5C10.635 14.5 11.75 13.385 11.75 12C11.75 11.7037 11.69 11.425 11.5962 11.1612L15.2375 6.85875C15.5212 6.94125 15.815 7 16.125 7C16.6183 6.99727 17.1038 6.87685 17.5413 6.64875L20.54 9.1025C20.5165 9.23378 20.5031 9.36667 20.5 9.5C20.5 10.885 21.615 12 23 12C24.385 12 25.5 10.885 25.5 9.5C25.5 8.115 24.385 7 23 7Z" fill="#474747"/>
</svg>
