<svg width="22" height="16" viewBox="0 0 22 16" fill="none" xmlns="http://www.w3.org/2000/svg">
<path d="M2.55156 0.200195C2.03439 0.200195 1.5384 0.405641 1.1727 0.771337C0.807008 1.13703 0.601563 1.63302 0.601562 2.1502V11.2502C0.601562 11.7674 0.807008 12.2634 1.1727 12.6291C1.5384 12.9948 2.03439 13.2002 2.55156 13.2002H16.8516C17.3687 13.2002 17.8647 12.9948 18.2304 12.6291C18.5961 12.2634 18.8016 11.7674 18.8016 11.2502V2.1502C18.8016 1.63302 18.5961 1.13703 18.2304 0.771337C17.8647 0.405641 17.3687 0.200195 16.8516 0.200195H2.55156ZM5.80156 1.5002V2.8002C5.80156 3.48976 5.52763 4.15108 5.04004 4.63867C4.55245 5.12627 3.89113 5.4002 3.20156 5.4002H1.90156V4.1002H3.20156C3.54634 4.1002 3.877 3.96323 4.1208 3.71943C4.3646 3.47564 4.50156 3.14498 4.50156 2.8002V1.5002H5.80156ZM9.70156 8.9752C9.0982 8.9752 8.51954 8.73551 8.09289 8.30886C7.66625 7.88222 7.42656 7.30356 7.42656 6.7002C7.42656 6.09683 7.66625 5.51817 8.09289 5.09153C8.51954 4.66488 9.0982 4.4252 9.70156 4.4252C10.3049 4.4252 10.8836 4.66488 11.3102 5.09153C11.7369 5.51817 11.9766 6.09683 11.9766 6.7002C11.9766 7.30356 11.7369 7.88222 11.3102 8.30886C10.8836 8.73551 10.3049 8.9752 9.70156 8.9752ZM1.90156 9.3002V8.0002H3.20156C3.89113 8.0002 4.55245 8.27412 5.04004 8.76172C5.52763 9.24931 5.80156 9.91063 5.80156 10.6002V11.9002H4.50156V10.6002C4.50156 10.2554 4.3646 9.92475 4.1208 9.68096C3.877 9.43716 3.54634 9.3002 3.20156 9.3002H1.90156ZM16.2016 9.3002C15.8568 9.3002 15.5261 9.43716 15.2823 9.68096C15.0385 9.92475 14.9016 10.2554 14.9016 10.6002V11.9002H13.6016V10.6002C13.6016 9.91063 13.8755 9.24931 14.3631 8.76172C14.8507 8.27412 15.512 8.0002 16.2016 8.0002H17.5016V9.3002H16.2016ZM16.2016 4.1002H17.5016V5.4002H16.2016C15.512 5.4002 14.8507 5.12627 14.3631 4.63867C13.8755 4.15108 13.6016 3.48976 13.6016 2.8002V1.5002H14.9016V2.8002C14.9016 3.14498 15.0385 3.47564 15.2823 3.71943C15.5261 3.96323 15.8568 4.1002 16.2016 4.1002ZM20.1016 11.2502C20.1016 12.1121 19.7592 12.9388 19.1497 13.5483C18.5402 14.1578 17.7135 14.5002 16.8516 14.5002H3.31206C3.44654 14.8805 3.69567 15.2098 4.02512 15.4427C4.35458 15.6755 4.74814 15.8004 5.15156 15.8002H16.8516C18.0583 15.8002 19.2156 15.3208 20.0689 14.4675C20.9222 13.6142 21.4016 12.4569 21.4016 11.2502V4.7502C21.4018 4.34677 21.2769 3.95321 21.044 3.62376C20.8112 3.2943 20.4819 3.04517 20.1016 2.9107V11.2502Z" fill="black"/>
</svg>
