<svg width="27" height="21" viewBox="0 0 27 21" fill="none" xmlns="http://www.w3.org/2000/svg">
<path d="M20.2847 8.85444C21.9517 8.62284 23.2352 7.20965 23.2388 5.49751C23.2388 3.81018 21.9948 2.41116 20.3635 2.14648" stroke="black" stroke-width="2" stroke-linecap="round" stroke-linejoin="round"/>
<path d="M22.4849 12.8164C24.0994 13.0551 25.2263 13.614 25.2263 14.766C25.2263 15.5589 24.6957 16.0741 23.8376 16.3978" stroke="black" stroke-width="2" stroke-linecap="round" stroke-linejoin="round"/>
<path fill-rule="evenodd" clip-rule="evenodd" d="M13.1144 13.3057C9.27355 13.3057 5.99316 13.8811 5.99316 16.1793C5.99316 18.4764 9.25324 19.0683 13.1144 19.0683C16.9553 19.0683 20.2345 18.4988 20.2345 16.1994C20.2345 13.9 16.9756 13.3057 13.1144 13.3057Z" stroke="black" stroke-width="2" stroke-linecap="round" stroke-linejoin="round"/>
<path fill-rule="evenodd" clip-rule="evenodd" d="M13.1142 10.0251C15.6345 10.0251 17.6781 8.00572 17.6781 5.51254C17.6781 3.02054 15.6345 1 13.1142 1C10.5938 1 8.55033 3.02054 8.55033 5.51254C8.54077 7.99626 10.5688 10.0168 13.0807 10.0251H13.1142Z" stroke="black" stroke-width="2" stroke-linecap="round" stroke-linejoin="round"/>
<path d="M5.94047 8.85444C4.27219 8.62284 2.98991 7.20965 2.98633 5.49751C2.98633 3.81018 4.23037 2.41116 5.8616 2.14648" stroke="black" stroke-width="2" stroke-linecap="round" stroke-linejoin="round"/>
<path d="M3.74142 12.8164C2.12692 13.0551 1 13.614 1 14.766C1 15.5589 1.5306 16.0741 2.38864 16.3978" stroke="black" stroke-width="2" stroke-linecap="round" stroke-linejoin="round"/>
</svg>
