<svg width="72" height="70" viewBox="0 0 72 70" fill="none" xmlns="http://www.w3.org/2000/svg">
<path d="M70.5226 34.7665C70.5226 53.6815 54.8575 69.0331 35.5113 69.0331C16.165 69.0331 0.5 53.6815 0.5 34.7665C0.5 15.8516 16.165 0.5 35.5113 0.5C54.8575 0.5 70.5226 15.8516 70.5226 34.7665Z" fill="white" stroke="#CC9933"/>
<path d="M27.4829 18.2979C24.2228 18.3052 21.4551 20.9053 21.4551 24.0971C21.4551 27.2888 24.2228 29.8889 27.4829 29.8963C30.6386 29.7721 33.3019 27.2231 33.3019 24.1044C33.3019 20.9856 30.6386 18.422 27.4829 18.2979ZM27.4829 26.6461C26.058 26.6315 24.7823 25.4994 24.7823 24.0971C24.7823 22.6947 26.058 21.5553 27.4829 21.548C28.8034 21.6722 29.9821 22.7824 29.9821 24.1044C29.9821 25.4263 28.8034 26.5219 27.4829 26.6461Z" fill="#CC9933"/>
<path d="M43.2029 18.2979C39.9428 18.2979 37.1602 20.898 37.1602 24.0971C37.1602 27.2888 39.9428 29.8889 43.2029 29.8963V29.8889C46.3512 29.7575 49.007 27.2085 49.007 24.0971C48.9995 20.9783 46.3512 18.422 43.2029 18.2979ZM43.2029 26.6388C41.7706 26.6388 40.48 25.4921 40.48 24.0971C40.48 22.6947 41.7706 21.5553 43.2029 21.5553C44.5234 21.6795 45.6798 22.7824 45.6798 24.0971C45.6798 25.419 44.5159 26.5146 43.2029 26.6388Z" fill="#CC9933"/>
<path fill-rule="evenodd" clip-rule="evenodd" d="M14.2871 44.1311C14.2871 37.061 20.2926 31.313 27.5066 31.3057H27.5068H27.5141V31.3058C27.8455 31.3142 28.1681 31.3338 28.4814 31.363C30.1407 31.4977 31.7124 31.9358 33.1384 32.6222C34.3216 33.1752 35.0223 33.7109 35.1368 33.7984L35.1369 33.7984C35.1479 33.8069 35.1535 33.8112 35.1535 33.8109L35.1636 33.8179L35.2288 33.7605L35.3034 33.8262C37.4722 32.2502 40.1622 31.3156 43.0684 31.3137V31.3057H43.0758C50.2899 31.313 56.2953 37.061 56.2953 44.1311C56.2953 45.0295 55.5493 45.7598 54.6317 45.7598C53.7141 45.7598 52.9681 45.0295 52.9681 44.1311C52.9681 38.902 48.5301 34.6353 43.2038 34.5641V34.5712H43.0695C41.0654 34.5712 39.1952 35.1612 37.6447 36.1812C38.6993 37.5025 39.2194 38.646 39.2194 38.646C39.2194 38.646 39.2803 38.78 39.3757 39.0169C39.8427 40.0617 40.1718 41.1798 40.3391 42.3479C40.5774 43.7304 40.609 45.2533 40.034 46.4485C39.1768 48.3966 37.1771 49.4052 35.2213 49.4052C32.6699 49.4052 30.0439 47.6888 29.9768 44.4094V44.1318C29.9768 41.6559 30.7004 39.3479 31.9463 37.3832C31.9575 37.3649 31.9687 37.3485 31.9798 37.332L31.9799 37.3319C31.9911 37.3155 32.0022 37.2991 32.0134 37.2809C32.0358 37.2517 32.0581 37.2152 32.0805 37.1787L32.0806 37.1787C32.3044 36.8354 32.5431 36.5067 32.8042 36.1853C32.1365 35.7452 31.41 35.3848 30.6388 35.1168C29.7117 34.8097 28.8497 34.6707 28.2657 34.6078C28.057 34.5891 27.8465 34.5769 27.6343 34.5712V34.5594C27.571 34.5569 27.5299 34.5561 27.5141 34.5559V34.5632C22.1278 34.5632 17.6144 38.8578 17.6144 44.1311C17.6144 45.0295 16.8684 45.7598 15.9507 45.7598C15.0331 45.7598 14.2871 45.0295 14.2871 44.1311ZM36.8545 41.772L36.8467 41.7352C36.7801 41.4837 36.7033 41.2361 36.6168 40.993C36.3453 40.2774 35.9602 39.5573 35.8534 39.3621C35.6656 39.0443 35.4595 38.7381 35.2365 38.445L35.2282 38.4356C34.214 39.7647 33.5502 41.364 33.3562 43.0947C33.3525 43.1203 33.3507 43.144 33.3488 43.1677C33.3469 43.1915 33.3451 43.2152 33.3413 43.2408C33.3375 43.2635 33.3356 43.2881 33.3337 43.3137C33.3319 43.3376 33.33 43.3622 33.3264 43.3869C33.3227 43.438 33.3208 43.4891 33.319 43.5402C33.3171 43.5914 33.3152 43.6425 33.3115 43.6936V43.7886C33.304 43.9052 33.304 44.0145 33.304 44.131V44.1318V44.3363C33.3413 46.0589 34.9133 46.1476 35.2281 46.1477V46.1396C36.4889 46.0812 36.8545 45.3727 36.8545 45.3727C37.3916 44.4452 37.0559 42.758 36.8545 41.772Z" fill="#CC9933"/>
</svg>
