<svg width="13" height="18" viewBox="0 0 13 18" fill="none" xmlns="http://www.w3.org/2000/svg">
<path d="M12.7463 13.0109L11.641 11.8906V7.54853C11.641 4.88249 10.2358 2.65066 7.78536 2.06014V1.46962C7.78536 0.748831 7.2113 0.166992 6.50015 0.166992C5.789 0.166992 5.21494 0.748831 5.21494 1.46962V2.06014C2.7559 2.65066 1.3593 4.87381 1.3593 7.54853V11.8906L0.254024 13.0109C-0.285765 13.558 0.0912303 14.4959 0.853788 14.4959H12.1379C12.9091 14.4959 13.2861 13.558 12.7463 13.0109ZM9.92737 12.759H3.07292V7.54853C3.07292 5.39486 4.3667 3.64066 6.50015 3.64066C8.6336 3.64066 9.92737 5.39486 9.92737 7.54853V12.759ZM6.50015 17.1011C7.44263 17.1011 8.21376 16.3195 8.21376 15.3643H4.78653C4.78653 16.3195 5.54909 17.1011 6.50015 17.1011Z" fill="#323232"/>
</svg>
