<svg width="14" height="15" viewBox="0 0 14 15" fill="none" xmlns="http://www.w3.org/2000/svg">
<path d="M12.341 9.33331L13.6094 8.06974C14.1302 7.55102 14.1302 6.70643 13.6094 6.1877L12.341 4.93079V3.14185C12.341 2.41032 11.7401 1.81179 11.0057 1.81179H9.20982L7.94134 0.548224C7.4206 0.0294983 6.57272 0.0294983 6.05198 0.548224L4.79018 1.81179H2.99428C2.2599 1.81179 1.65904 2.41032 1.65904 3.14185V4.93079L0.390558 6.19435C-0.130186 6.71308 -0.130186 7.55767 0.390558 8.0764L1.65904 9.33996V11.1222C1.65904 11.8538 2.2599 12.4523 2.99428 12.4523H4.79018L6.05866 13.7159C6.5794 14.2346 7.42728 14.2346 7.94802 13.7159L9.2165 12.4523H11.0057C11.7401 12.4523 12.341 11.8538 12.341 11.1222V9.33331ZM7 11.1222C4.79018 11.1222 2.99428 9.33331 2.99428 7.13205C2.99428 4.93079 4.79018 3.14185 7 3.14185C9.20982 3.14185 11.0057 4.93079 11.0057 7.13205C11.0057 9.33331 9.20982 11.1222 7 11.1222Z" fill="#323232"/>
</svg>
