<svg width="23" height="13" viewBox="0 0 23 13" fill="none" xmlns="http://www.w3.org/2000/svg">
<path d="M6.70833 4.74886H4.79167V2.90986C4.79167 2.40414 4.36042 1.99037 3.83333 1.99037C3.30625 1.99037 2.875 2.40414 2.875 2.90986V4.74886H0.958333C0.43125 4.74886 0 5.16264 0 5.66836C0 6.17409 0.43125 6.58786 0.958333 6.58786H2.875V8.42686C2.875 8.93258 3.30625 9.34636 3.83333 9.34636C4.36042 9.34636 4.79167 8.93258 4.79167 8.42686V6.58786H6.70833C7.23542 6.58786 7.66667 6.17409 7.66667 5.66836C7.66667 5.16264 7.23542 4.74886 6.70833 4.74886ZM17.25 5.66836C18.8408 5.66836 20.1154 4.43623 20.1154 2.90986C20.1154 1.3835 18.8408 0.151367 17.25 0.151367C16.9433 0.151367 16.6462 0.197342 16.3779 0.280097C16.9242 1.02489 17.2404 1.926 17.2404 2.90986C17.2404 3.89373 16.9146 4.78564 16.3779 5.53963C16.6462 5.62239 16.9433 5.66836 17.25 5.66836ZM12.4583 5.66836C14.0492 5.66836 15.3237 4.43623 15.3237 2.90986C15.3237 1.3835 14.0492 0.151367 12.4583 0.151367C10.8675 0.151367 9.58333 1.3835 9.58333 2.90986C9.58333 4.43623 10.8675 5.66836 12.4583 5.66836ZM12.4583 7.50736C10.5417 7.50736 6.70833 8.42686 6.70833 10.2659V11.1854C6.70833 11.6911 7.13958 12.1049 7.66667 12.1049H17.25C17.7771 12.1049 18.2083 11.6911 18.2083 11.1854V10.2659C18.2083 8.42686 14.375 7.50736 12.4583 7.50736ZM18.8025 7.65448C19.5979 8.32571 20.125 9.18085 20.125 10.2659V11.6451C20.125 11.8014 20.1058 11.9577 20.0771 12.1049H22.5208C22.7892 12.1049 23 11.9026 23 11.6451V10.2659C23 8.84983 20.7288 7.9763 18.8025 7.65448Z" fill="#323232"/>
</svg>
