<svg width="20" height="20" viewBox="0 0 20 20" fill="none" xmlns="http://www.w3.org/2000/svg">
    <path d="M9.06252 13.4376C9.06252 13.6862 9.16129 13.9247 9.33711 14.1005C9.51292 14.2763 9.75138 14.3751 10 14.3751C10.2487 14.3751 10.4871 14.2763 10.6629 14.1005C10.8387 13.9247 10.9375 13.6862 10.9375 13.4376C10.9375 13.189 10.8387 12.9505 10.6629 12.7747C10.4871 12.5989 10.2487 12.5001 10 12.5001C9.75138 12.5001 9.51292 12.5989 9.33711 12.7747C9.16129 12.9505 9.06252 13.189 9.06252 13.4376ZM10.4688 11.2501C10.5547 11.2501 10.625 11.1798 10.625 11.0938V5.78134C10.625 5.69541 10.5547 5.62509 10.4688 5.62509H9.53127C9.44533 5.62509 9.37502 5.69541 9.37502 5.78134V11.0938C9.37502 11.1798 9.44533 11.2501 9.53127 11.2501H10.4688ZM18.2813 7.57822H17.1231C17.0723 7.57822 17.0254 7.60165 16.9961 7.64267L14.916 10.5099L13.9414 9.16611C13.927 9.14598 13.9079 9.12962 13.8858 9.11841C13.8637 9.10719 13.8392 9.10145 13.8145 9.10166H12.6563C12.5293 9.10166 12.4551 9.24619 12.5293 9.3497L14.6621 12.2931C14.6913 12.333 14.7295 12.3655 14.7736 12.3879C14.8178 12.4103 14.8666 12.422 14.916 12.422C14.9655 12.422 15.0143 12.4103 15.0584 12.3879C15.1025 12.3655 15.1407 12.333 15.1699 12.2931L18.4082 7.82626C18.4824 7.72275 18.4082 7.57822 18.2813 7.57822ZM17.4219 13.5548H16.168C16.0606 13.5548 15.961 13.6114 15.9024 13.7013C15.6251 14.1417 15.2988 14.5493 14.9297 14.9161C14.2952 15.5511 13.5437 16.0571 12.7168 16.4063C11.8595 16.7679 10.9382 16.9532 10.0078 16.9513C9.06838 16.9513 8.15627 16.7677 7.29885 16.4063C6.47192 16.0571 5.72045 15.5511 5.08596 14.9161C4.4494 14.2833 3.94253 13.5322 3.59377 12.7052C3.23049 11.8497 3.04689 10.9376 3.04689 10.0001C3.04689 9.06259 3.23049 8.15048 3.59377 7.29501C3.94338 6.46689 4.44533 5.72275 5.08596 5.08408C5.72658 4.4454 6.47072 3.94345 7.29885 3.59384C8.15613 3.23228 9.07742 3.04696 10.0078 3.04892C10.9473 3.04892 11.8594 3.23251 12.7168 3.59384C13.5449 3.94345 14.2891 4.4454 14.9297 5.08408C15.3008 5.45517 15.625 5.86142 15.9024 6.29892C15.959 6.39072 16.0606 6.44541 16.168 6.44541H17.4219C17.5391 6.44541 17.6133 6.32236 17.5625 6.21884C16.1875 3.48642 13.3731 1.60166 10.1113 1.56259C5.44728 1.50791 1.57228 5.32236 1.56252 9.98447C1.55275 14.6505 5.33791 18.4376 10.0078 18.4376C13.3125 18.4376 16.1719 16.5431 17.5606 13.7813C17.5725 13.7576 17.5782 13.7312 17.5771 13.7046C17.5761 13.678 17.5682 13.6521 17.5543 13.6295C17.5404 13.6068 17.521 13.588 17.4978 13.5749C17.4746 13.5619 17.4485 13.5549 17.4219 13.5548Z" fill="#FF0000"/>
</svg>
