<svg width="21" height="21" viewBox="0 0 21 21" fill="none" xmlns="http://www.w3.org/2000/svg">
    <path d="M14.4148 4.73185L16.268 6.58422L14.4148 4.73185ZM15.6065 3.09997L10.5954 8.1111C10.3365 8.36966 10.1599 8.69908 10.0879 9.05785L9.625 11.3748L11.942 10.9111C12.3007 10.8393 12.6297 10.6635 12.8887 10.4045L17.8999 5.39335C18.0505 5.24276 18.1699 5.06399 18.2514 4.86724C18.3329 4.67049 18.3748 4.45962 18.3748 4.24666C18.3748 4.0337 18.3329 3.82283 18.2514 3.62608C18.1699 3.42933 18.0505 3.25056 17.8999 3.09997C17.7493 2.94939 17.5705 2.82994 17.3738 2.74844C17.177 2.66695 16.9661 2.625 16.7532 2.625C16.5402 2.625 16.3294 2.66695 16.1326 2.74844C15.9359 2.82994 15.7571 2.94939 15.6065 3.09997V3.09997Z" stroke="black" stroke-width="2" stroke-linecap="round" stroke-linejoin="round"/>
    <path d="M16.625 13.125V15.75C16.625 16.2141 16.4406 16.6592 16.1124 16.9874C15.7842 17.3156 15.3391 17.5 14.875 17.5H5.25C4.78587 17.5 4.34075 17.3156 4.01256 16.9874C3.68437 16.6592 3.5 16.2141 3.5 15.75V6.125C3.5 5.66087 3.68437 5.21575 4.01256 4.88756C4.34075 4.55937 4.78587 4.375 5.25 4.375H7.875" stroke="black" stroke-width="2" stroke-linecap="round" stroke-linejoin="round"/>
</svg>
