<svg width="30" height="30" viewBox="0 0 30 30" fill="none" xmlns="http://www.w3.org/2000/svg">
    <path d="M22.535 4.6095H2.80279C1.23943 4.6095 0 5.87709 0 7.42637V27.1445C0 28.6938 1.23943 29.9614 2.80279 29.9614H22.535C24.0843 29.9614 25.3519 28.6938 25.3519 27.1445V7.42637C25.3519 5.87709 24.0843 4.6095 22.535 4.6095ZM22.535 21.5108H18.1266C17.4646 21.5108 16.9294 21.9896 16.7463 22.6375C16.2534 24.4262 14.6055 25.7361 12.6759 25.7361C10.7464 25.7361 9.09851 24.4262 8.60556 22.6375C8.42246 21.9896 7.88726 21.5108 7.22529 21.5108H2.80279V8.83481C2.80279 8.06017 3.43659 7.42637 4.21123 7.42637H21.1266C21.9012 7.42637 22.535 8.06017 22.535 8.83481V21.5108Z" fill="black"/>
    <circle cx="23.0472" cy="6.91415" r="6.91415" fill="#FE5151"/>
</svg>
