<svg width="26" height="26" viewBox="0 0 26 26" fill="none" xmlns="http://www.w3.org/2000/svg">
    <path d="M22.535 0.609497H2.80279C1.23943 0.609497 0 1.87709 0 3.42637V23.1445C0 24.6938 1.23943 25.9614 2.80279 25.9614H22.535C24.0843 25.9614 25.3519 24.6938 25.3519 23.1445V3.42637C25.3519 1.87709 24.0843 0.609497 22.535 0.609497ZM22.535 17.5108H18.1266C17.4646 17.5108 16.9294 17.9896 16.7463 18.6375C16.2534 20.4262 14.6055 21.7361 12.6759 21.7361C10.7464 21.7361 9.09851 20.4262 8.60556 18.6375C8.42246 17.9896 7.88726 17.5108 7.22529 17.5108H2.80279V4.83481C2.80279 4.06017 3.43659 3.42637 4.21123 3.42637H21.1266C21.9012 3.42637 22.535 4.06017 22.535 4.83481V17.5108Z" fill="black"/>
</svg>
